<svg xmlns="http://www.w3.org/2000/svg" xmlns:xlink="http://www.w3.org/1999/xlink" width="2692" height="1252" xmlns:v="https://vecta.io/nano"><style><![CDATA[.B{font-family:CronosPro-Regular, Cronos Pro}.C{fill:none}.D{fill:#fff}.E{font-size:30px}.F{stroke:none}.G{stroke:#000}.H{fill:#294df2}.I{stroke:#707070}.J{stroke-linecap:round}.K{stroke-dasharray:5 7}.L{stroke-width:4}.M{fill:#575757}.N{font-size:26px}.O{font-size:35px}.P{fill:rgba(41,77,242,0.38)}.Q{stroke-dasharray:5}.R{stroke:#d63333}.S{fill:#d63333}]]></style><defs><clipPath id="A"><path d="M0 0h2692v1252H0z"/></clipPath><path id="B" d="M6.34 14.506L.787 8.952a1.73 1.73 0 0 1-.5-.5A1.7 1.7 0 0 1 .3 6.55c.062-.093.134-.18.213-.26L6.3.5c.674-.672 1.764-.67 2.436.004s.67 1.764-.004 2.436L5.862 5.8h34.36a1.7 1.7 0 0 1 0 3.4H5.8l2.914 2.914c.64.662.63 1.713-.02 2.363s-1.702.66-2.363.02z"/><path id="C" d="M6.34 14.506L.787 8.952a1.73 1.73 0 0 1-.5-.5A1.7 1.7 0 0 1 .3 6.55c.062-.093.134-.18.213-.26L6.3.5c.674-.672 1.764-.67 2.436.004s.67 1.764-.004 2.436L5.862 5.8h60.36a1.7 1.7 0 0 1 1.472 2.55 1.7 1.7 0 0 1-1.472.85H5.8l2.914 2.914c.64.662.63 1.713-.02 2.363s-1.702.66-2.363.02z"/><path id="D" d="M6.34 14.506L.787 8.952a1.729 1.729 0 0 1-.5-.5A1.7 1.7 0 0 1 .3 6.55a1.733 1.733 0 0 1 .213-.259L6.3.5a1.722 1.722 0 0 1 2.432 2.44L5.862 5.8h5.36a1.7 1.7 0 0 1 1.61 2.243L201.6 1.9 12.83 8.053a1.7 1.7 0 0 1-1.61 1.155H5.8l2.914 2.914a1.686 1.686 0 0 1-2.384 2.384z"/><path id="E" d="M7.533 15a1.68 1.68 0 0 1-1.192-.493h0L.787 8.952c-.098-.064-.19-.14-.277-.225s-.158-.175-.22-.27A1.69 1.69 0 0 1 0 7.509a1.69 1.69 0 0 1 .296-.958c.06-.09.132-.178.213-.26l1.947-1.947.864.864h3.144l-.602.602h5.1v3.398H5.8l2.913 2.913-1.2 1.192V15zM7.514 4c-.6 0-1.185-.242-1.61-.665h0l-.002-.002L5.9 3.33c-.473-.475-.707-1.122-.66-1.772l.406-.406.992.303L5.992.81l.304-.304C6.633.168 7.074 0 7.514 0s.88.168 1.217.505l-1.22 1.217L8.732.505l-1.217 1.22L8.732 2.94 7.678 3.994 7.514 4zm1.647-1.774l-1.647-.503L8.732.505l.015.015.015.016.015.016.014.015.014.015L8.82.6l.017.02.014.017c.086.106.158.22.215.338l.01.02.01.023.01.02.01.02.01.023.008.02.008.02.007.02.007.02.007.02.007.02.006.02.006.02.006.02.006.02.006.025.005.02A1.73 1.73 0 0 1 9.214 2l-.004.025-.004.02-.004.02-.004.02-.005.02-.005.02-.005.02-.022.077zm5.187 5.777l2.844-.093-2.844.093zm2.92-.095h.01-.01zm17.07-.557l2.827-.092-2.827.092zm2.828-.092h.038-.038zm.076-.002h.005-.005zm.03-.001h.004-.004zm.013 0h.006-.006zm.012 0h.01-.01zm.016-.001h.005-.005zM54.327 6.7l2.928-.095-2.928.095zm2.93-.096l.07-.002-.07.002zm.09-.003h.007-.007zm16.97-.553l3.542-.116-3.542.116zm3.55-.116h.003-.003zm.026-.001h.006-.006zm.05-.002h.012-.012zm16.364-.534l3.78-.123-3.78.123zm3.783-.123l.023-.001-.023.001zm.024-.001l.05-.002-.05.002zm.056-.002h.001-.001zm.023-.001h.004-.004zm.027-.001h.001-.001zm.02-.001h.008-.008zm.1-.003h.003-.003zm15.957-.52l3.965-.13-3.965.13zm3.98-.13h.013-.013zm.03-.001h.005-.005zm.01 0l.032-.001-.032.001zm.036-.001h.008-.008zm.025-.001h.005-.005zm.013 0h.001-.001zm.006 0l.03-.001-.03.001zm.114-.004h.006-.006zm15.777-.515l4.707-.154-4.707.154zm4.714-.154H139h-.001zm.006 0l.056-.002-.056.002zm.06-.002l.018-.001-.018.001zm.02-.001h.003-.003zm.004 0h.004-.004zm.014 0h.001-.001zm.01 0h.002-.002zm.034-.001h0 0zm.01 0h.003-.003zm.068-.002h0 0zm.056-.002h0 0zm14.992-.49l4.84-.158-4.84.158zm4.84-.158h.015-.015zm.016-.001h.004-.004zm.005 0l.034-.001-.034.001zm.034-.001h.003-.003zm.014 0h.002-.002zm.017-.001h0 0zm.003 0h.001-.001zm.003 0h.002-.002zm.004 0h.01-.01zm.01 0h.002-.002zm.004 0h0 0zm.003 0h.001-.001zm.01 0h.001-.001zm.005 0h0 0zm.002 0h.001-.001zm.002 0h.001-.001zm.002 0h.001-.001zm.002 0h.001-.001zm.002 0h.001-.001zm.002 0h.001-.001zm.01 0h0 0zm.002 0h0 0zm.003 0h0 0zm0 0h0 0zm0 0h0 0zm14.992-.49l4.904-.16-4.904.16zm4.904-.16h.012-.012zm.014 0h.006-.006zm.007 0l.03-.001-.03.001zm.03-.001l.042-.001-.042.001zm15.034-.5l4.997-.163-4.997.163zm-10.3.336l4.997-.163-4.997.163zm-19.99.652l4.997-.163-4.997.163zm-19.99.652l5.3-.173-5.3.173zm-19.99.652l5.3-.173-5.3.173zm-19.99.652l5.3-.173-5.3.173zm-19.99.652l5.3-.173-5.3.173zm-19.99.652l5.3-.173-5.3.173zm-19.99.652l5.3-.173-5.3.173zm-19.99.652l5.3-.173-5.3.173zM7.533 15v-1.685l1.492.784c-.044.084-.096.165-.155.242l-.013.016-.017.02-.013.016-.018.02-.014.016-.015.016-.015.016-.015.016-.016.016A1.69 1.69 0 0 1 7.533 15z"/></defs><g clip-path="url(#A)"><path d="M0 0h2692v1252H0z" class="D"/><g class="H I"><rect width="251" height="221.658" rx="62" x="586" y="720" class="F"/><rect x="586.5" y="720.5" width="250" height="220.658" rx="61.5" class="C"/></g><text class="B D E"><tspan x="667.615" y="818">Bus line </tspan><tspan x="674.56" y="860">details</tspan></text><g transform="matrix(-1 .017 -.017 -1 886.046 496.406)"><use xlink:href="#B"/></g><g transform="matrix(-1 .017 -.017 -1 564.046 503.406)"><use xlink:href="#B"/></g><g transform="matrix(0 -1 1 0 704.46 693.46)"><use xlink:href="#C"/></g><g transform="matrix(0 -1 1 0 1515.46 697.46)"><use xlink:href="#C"/></g><g transform="matrix(-1 0 0 -1 1701.92 500)"><use xlink:href="#C"/></g><g class="H I"><ellipse cx="337.5" cy="481" rx="172.5" ry="109" class="F"/><ellipse cx="337.5" cy="481" rx="172" ry="108.5" class="C"/></g><text class="B D E"><tspan x="280.07" y="489">Open app</tspan></text><g class="H I"><rect width="251" height="221.658" rx="62" x="586" y="393" class="F"/><rect x="586.5" y="393.5" width="250" height="220.658" rx="61.5" class="C"/></g><text class="B D E"><tspan x="635.1" y="512">Home screen</tspan></text><g class="H I"><rect width="251" height="221.658" rx="62" x="1367" y="386" class="F"/><rect x="1367.5" y="386.5" width="250" height="220.658" rx="61.5" class="C"/></g><text class="B D E"><tspan x="1407.575" y="484">Toggle bus line </tspan><tspan x="1440.02" y="526">alert ‘On’</tspan></text><g transform="matrix(.707107 -.707107 .707107 .707107 902 499.856)" class="G P"><rect width="219" height="219" rx="62" class="F"/><rect x="1" y="1" width="217" height="217" rx="61" stroke-width="2" class="C Q"/></g><text class="B E"><tspan x="968.031" y="470.356">Set alert for bus </tspan><tspan x="998.061" y="512.356">arrival and </tspan><tspan x="996.771" y="554.356">departure?</tspan><tspan y="473" x="1238">Yes</tspan></text><g transform="matrix(-1 0 0 -1 1338.813 500.597)"><use xlink:href="#D"/><use xlink:href="#E"/></g><path d="M1327.9 493.052l-113.02-.014" stroke-width="4.002" class="C G J K"/><g transform="matrix(-1 0 0 -1 1080.419 494.4)"><path d="M320.048 129.536l-.757 57.29H20.157v-43.48" class="C G J K L"/><g transform="matrix(0 1 -1 0 328.898 109.962)"><path d="M6.3 14.5L.51 8.708a1.729 1.729 0 0 1-.222-.272 1.7 1.7 0 0 1 0-1.891 1.733 1.733 0 0 1 .5-.5L6.34.494a1.685 1.685 0 0 1 2.384 2.383L5.8 5.792h5.41a1.7 1.7 0 0 1 1.61 1.155L201.6 13.1 12.83 6.947a1.7 1.7 0 0 1-1.61 2.242H5.86l2.87 2.87A1.722 1.722 0 0 1 6.3 14.5z"/><path d="M7.514 15a1.72 1.72 0 0 1-1.218-.504h0L.51 8.708a1.73 1.73 0 0 1-.222-.272 1.69 1.69 0 0 1 0-1.891 1.73 1.73 0 0 1 .222-.272 1.73 1.73 0 0 1 .277-.225L2.48 4.354l.835.835h3.097l-.603.603h5.123V9.19H5.86l2.87 2.87-1.216 1.217V15zm.018-11a2.33 2.33 0 0 1-1.639-.679c-.454-.454-.692-1.08-.674-1.707l.546-.546.77.27-.52-.52.324-.324A1.68 1.68 0 0 1 7.533 0a1.68 1.68 0 0 1 1.192.494L8.74.51l.016.016.014.015.015.016.014.016.014.016.014.016.013.016.014.017.013.016.013.017.012.017.013.017.012.017.012.017.012.018.01.017.012.018.01.017.01.018.01.017.01.018.01.018.01.02.01.018.01.018.01.02.01.02.01.02.01.022.01.02.008.02.008.02.008.02.007.02.008.022.007.02.006.02.007.023.006.02.005.02.007.025.006.025.006.025.005.025.006.03.005.025.004.025.004.025.003.025.003.03.002.02.003.03.002.025.001.025.001.026.001.025v.026.04l-.002.05a1.69 1.69 0 0 1-.093.475l-1.59-.557 1.2 1.2L7.603 4h-.07zm12.89 3.195h0 0 0zm0 0h0 0zm0 0h0 0zm-.003 0h-.001.001zm-.007 0h0 0zm-.003 0h-.001.001zM29.5 7.5h-.018.018zm-.02-.001l-.02-.001.02.001zm-.024-.001l-4.032-.13 4.032.13zm8.678.283l-2.716-.09 2.716.09zm8.82.288h-.01.01zm-.017-.001l-3.986-.13 3.986.13zm13.468.44l-7.46-.243 7.46.243zm9.995.326l-3.577-.117 3.577.117zm-3.58-.117h-.02.02zm-.03-.001h-.006.006zm13.604.444l-2.004-.065 2.004.065zm-2.004-.065h-.014.014zm-.017-.001h-.005.005zm-.03-.001h-.007.007zm-.01 0h-.012.012zm-.018-.001h-.004.004zm-.015 0h-.007.007zm-.013 0h-.01.01zm-.012 0h-.012.012zm12.115.395l-.46-.015.46.015zm-.462-.015h-.07.07zm-.075-.002l-.03-.001.03.001zm9.68.316h-.005.005zm-.046-.001l-4.1-.134 4.1.134zm8.944.292h-.01.01zm-.016-.001h-.005.005zm-.016-.001l-.02-.001.02.001zm-.027-.001h-.007.007zm-.016-.001h-.004.004zm-.013 0l-2.96-.097 2.96.097zm8.706.284h-.003.003zm-.014 0h-.008.008zm-.04-.001h-.004.004zm-.014 0h-.008.008zm-.03-.001l-4.038-.132 4.038.132zm13.416.437l-7.46-.243 7.46.243zm9.995.326l-3.937-.128 3.937.128zm-3.938-.128l-.047-.002.047.002zm-.05-.002h-.006.006zm-.012 0h-.006.006zm-.013 0h-.004.004zm14.008.457l-2.235-.073 2.235.073zm-2.236-.073h-.014.014zm-.015 0h-.006.006zm-.02-.001h-.002.002zm-.03-.001h-.001.001zm12.295.4l-.87-.028.87.028zm-.872-.028l-.04-.001.04.001zm-.05-.002h-.003.003zm-.024-.001h-.001.001zm10.273.335l-4.33-.14 4.33.14zm8.823.288h-.003.003zm-.012 0h-.004.004zm-.014 0h-.007.007zm-.013 0h-.01.01zm-.013 0l-3.107-.1 3.107.1zm-4.743-.155h-.001.001zm-.022-.001h-.002.002zm-.02-.001h-.008.008zm-.02-.001h-.01.01zm-.013 0h-.007.007zm-.01 0l-.032-.001.032.001zm-.032-.001l-.027-.001.027.001zm-.034-.001h-.005.005zm-.02-.001l-.658-.02.658.02zm13.76.45h-.01.01zm-.047-.002l-1.915-.062 1.915.062zm-1.918-.063l-.025-.001.025.001zm-.03-.001l-2.43-.08 2.43.08zm15.025.5l-7.46-.243 7.46.243zm-42.44-1.384l-3.086-.1 3.086.1zm-9.995-.326L146 11.29l1.894.062zm-1.9-.062h-.004.004zm-.014 0h-.004.004zM103.98 9.92h-.007.007zm-.026-.001h-.005.005zm-.012 0h-.007.007zm-.01 0l-1.016-.033 1.016.033zm-16.008-.522l-3.43-.112 3.43.112zM77.93 9.07l-1.952-.064 1.952.064zm-1.955-.064l-.04-.001.04.001zm-.042-.001h-.014.014zm-.014 0l-.028-.001.028.001zm-.032-.001h-.005.005zm-41.5-1.353l-1.433-.047 1.433.047zm-16.425-.536l-3.627-.118 3.627.118zm-3.65-.12h-.001.001zm-.014 0h0 0zM7.514 15v-1.724l1.507.836-.01.018a1.72 1.72 0 0 1-1.497.87z"/></g></g><text class="B E"><tspan y="345" x="896">No</tspan><tspan y="664" x="1402">No</tspan><tspan y="559" x="1657">No</tspan></text><g transform="matrix(.707107 -.707107 .707107 .707107 1331 847.856)" class="G P"><rect width="219" height="219" rx="62" class="F"/><rect x="1.5" y="1.5" width="216" height="216" rx="60.5" stroke-width="3" class="C Q"/></g><text class="B E"><tspan x="1453.606" y="824.356">Is bus </tspan><tspan x="1437.301" y="866.356">arriving?</tspan></text><path d="M1785.965 847.82l-152.675-.135" class="C G J K L"/><g transform="matrix(-1 -.017 .017 -1 1793.566 855.427)"><use xlink:href="#D"/><use xlink:href="#E"/></g><g transform="matrix(0 -1 1 0 1416.521 820.667)"><path d="M193.965 33.46H121.8" class="C G J K L"/><g transform="matrix(-1 -.017 .017 -1 201.566 41.065)"><use xlink:href="#D"/><use xlink:href="#E"/></g></g><g transform="matrix(-1 -.017 .017 -1 1829.296 569.969)"><path d="M193.965 33.46H121.8" class="C G J K L"/><g transform="matrix(-1 -.017 .017 -1 201.566 41.065)"><use xlink:href="#D"/><use xlink:href="#E"/></g></g><text class="B E"><tspan y="816" x="1685">Yes</tspan></text><g class="H I"><ellipse cx="2002.5" cy="848" rx="172.5" ry="109" class="F"/><ellipse cx="2002.5" cy="848" rx="172" ry="108.5" class="C"/></g><text class="B D E"><tspan x="1931.15" y="804">Pop-up alert </tspan><tspan x="1936.01" y="846">when bus is </tspan><tspan x="1959.335" y="888">arriving</tspan></text><g transform="matrix(.707107 -.707107 .707107 .707107 1693 500.856)" class="G P"><rect width="219" height="219" rx="62" class="F"/><rect x="1.5" y="1.5" width="216" height="216" rx="60.5" stroke-width="3" class="C Q"/></g><text class="B E"><tspan x="1815.606" y="477.356">Is bus </tspan><tspan x="1786.806" y="519.356">departing?</tspan><tspan y="488" x="2053">Yes</tspan></text><path d="M2150.965 499.82l-152.675-.135" class="C G J K L"/><g transform="matrix(-1 -.017 .017 -1 2158.566 507.427)"><use xlink:href="#D"/><use xlink:href="#E"/></g><g class="H I"><ellipse cx="2354.5" cy="502" rx="172.5" ry="109" class="F"/><ellipse cx="2354.5" cy="502" rx="172" ry="108.5" class="C"/></g><text class="B D E"><tspan x="2279.97" y="461" xml:space="preserve">Pop-up alert </tspan><tspan x="2288.01" y="503">when bus is </tspan><tspan x="2314.74" y="545">leaving</tspan></text><g class="D R"><rect width="362" height="220" rx="5" x="531" y="968" class="F"/><rect x="531.5" y="968.5" width="361" height="219" rx="4.5" class="C"/></g><text class="B M N"><tspan y="1086.393" x="561.84">As a user I want to see all </tspan><tspan y="1122.393" x="561.84">busses going to my stop</tspan></text><path d="M544.61 968H879.39A13.55 13.55 0 0 1 893 981.489v64.746H531V981.49A13.55 13.55 0 0 1 544.609 968z" opacity=".796" class="S"/><text class="B D O"><tspan x="551.152" y="1016.489">High Priority User Story</tspan></text><g class="D R"><rect width="362" height="220" rx="5" x="1822" y="968" class="F"/><rect x="1822.5" y="968.5" width="361" height="219" rx="4.5" class="C"/></g><text class="B M N"><tspan y="1086.393" x="1852.84">As a user I want to see when </tspan><tspan y="1122.393" x="1852.84">the bus is coming</tspan></text><path d="M1835.61 968h334.782A13.55 13.55 0 0 1 2184 981.489v64.746h-362V981.49A13.55 13.55 0 0 1 1835.609 968z" opacity=".8" class="S"/><text class="B D O"><tspan x="1842.152" y="1016.489">High Priority User Story</tspan></text><g class="D R"><rect width="362" height="220" rx="5" x="2175" y="144" class="F"/><rect x="2175.5" y="144.5" width="361" height="219" rx="4.5" class="C"/></g><text class="B M N"><tspan y="262.393" x="2205.84">As a user I want to see when </tspan><tspan y="298.393" x="2205.84">the bus is leaving</tspan></text><path d="M2188.61 144h334.782A13.55 13.55 0 0 1 2537 157.489v64.746h-362V157.49A13.55 13.55 0 0 1 2188.609 144z" opacity=".8" class="S"/><text class="B D O"><tspan x="2195.152" y="192.489">High Priority User Story</tspan></text><g stroke="#f4ce5b" class="D"><rect width="362" height="220" rx="5" x="1312" y="144" class="F"/><rect x="1312.5" y="144.5" width="361" height="219" rx="4.5" class="C"/></g><text class="B M N"><tspan y="262.393" x="1342.84">As a user I want to see when </tspan><tspan y="298.393" x="1342.84">the bus is leaving</tspan></text><path d="M1325.61 144h334.782A13.55 13.55 0 0 1 1674 157.489v64.746h-362V157.49A13.55 13.55 0 0 1 1325.609 144z" fill="#f1c232" opacity=".796"/><text class="B D O"><tspan x="1332.152" y="192.489">Med Priority User Story</tspan></text></g></svg>