<svg xmlns="http://www.w3.org/2000/svg" viewBox="0 0 466.02 337.57"><defs><style>.cls-1{fill:#231f20;}.cls-2{fill:#fcb771;}.cls-3{fill:#f4d070;}.cls-14,.cls-21,.cls-4,.cls-8{fill:#fff;}.cls-15,.cls-17,.cls-18,.cls-5{fill:none;}.cls-5{stroke:#43c0c0;stroke-width:6px;}.cls-17,.cls-18,.cls-21,.cls-5,.cls-6{stroke-linecap:round;}.cls-14,.cls-15,.cls-17,.cls-18,.cls-21,.cls-5,.cls-6,.cls-8{stroke-miterlimit:10;}.cls-6{fill:#d24e45;stroke:#fff;}.cls-7{fill:#4c4045;}.cls-15,.cls-17,.cls-18,.cls-21,.cls-8{stroke:#a68148;}.cls-9{fill:#20a39e;}.cls-10{fill:#392f5a;}.cls-11{fill:#bcbec0;}.cls-12{fill:#cdb6d4;}.cls-13,.cls-16{fill:#a68148;}.cls-13{opacity:0.19;}.cls-14{stroke:#2bb673;}.cls-18{stroke-width:0.5px;}.cls-19,.cls-20{fill:#f2baac;}.cls-19{opacity:0.2;}.cls-20{opacity:0.3;}.cls-22{fill:#f68820;}.cls-23{fill:#d1d3d4;}.cls-24{fill:#58595b;}.cls-25{fill:#a0722a;}</style></defs><g id="Layer_2" data-name="Layer 2"><g id="artwork"><path class="cls-1" d="M249.05,227.12l58.46-12.56-37-15L293,185.08l-32.3-2.23,16.51-21.08-48,6.11-1.4-42.52-51.57,25.47L156.4,128l-14.26,19.45-23.41-13.89-3.67,20.31-37-2.81q5.74,16.26,11.5,32.52l-48.65,5.4,15.93,18.85-24.4.72,32.27,20.16q-5.15,8.42-10.31,16.83l37.34-1.06L84.53,277l35.74-3.89q2.79,9.58,5.57,19.18l44.73-23.06L194.84,289l8.5-19.12L247.25,283l-7.67-23a39.38,39.38,0,0,0,28.84-11.8Q258.75,237.63,249.05,227.12Z"/><path class="cls-1" d="M278.5,136.25,328,144.13c3.33-8.83,8.68-26,7.35-46.22a89.52,89.52,0,0,0-2-13.75l-9.3,4.28"/><path class="cls-2" d="M293.82,130.34,321,134.66a61.64,61.64,0,0,0,4-25.37,49.37,49.37,0,0,0-1.08-7.55l-5.11,2.35"/><path class="cls-1" d="M323.07,191l16.78-13.5-7.33-16.65,12.75-13.24-18.36-2,9.38-19.32L309,131.83l-.8-39L278.91,116.2l-11.27-21-8.1,17.84-13.31-12.73L244.15,119l-28-8.43,13.48,35.67-36,6.43,17.39,15.8-17.39,9.27,21.86,9.86L204.6,203.22,230.9,202l-5.3,38.44,21.51-12.19,4.16,23.13L275.7,224.7l9.15,12,9.47-11.43,9.35,4.51q2.56-9.74,5.15-19.48l24-2.25Z"/><path class="cls-1" d="M167.43,217,154.9,201.5l8.35-1.75-5.49-6.2,3.93-3.2-10.85-5.82,1.89-10.8-11.44,1.08-5.74-9.74-10.85.1-2.84-3.69,1.06-1.52-2.53-.38-1.81-2.36-1,1.94-3-.46,4.25-12-12.35,3.48-2.13-13.91-11.5,4.21-4-10.25,5.27-7.49L81.22,114q4.47-7.06,8.93-14.13L79.68,96.22l8.93-13.09L80.3,81.87l4.25-12L72.2,73.35l3.57-20.82L62.52,49.6q3.06-7.82,6.1-15.64l-8.31-1.27,4.25-12L52.21,24.18,51.85,0,38.58,14.48l-5.1-13L29.81,12.54l-6-7.89-.95,11.54L10.18,11l6.11,22.13L0,37.08l7.87,9.79L0,52.63l9.89,6.12L4.94,68.46l14.35,6.66q-2.41,8.22-4.84,16.44L26,97.44l-6,4.36,9.89,6.12-4.95,9.72,11.27,5.61-10.69,2.62,7.86,9.8-7.86,5.75,9.89,6.12-4.95,9.72,11.9-.75L40,180.35l9.74-7.56,1.88,14.35,7.67,7.33,11.91-.75-2.4,23.84L78.48,210l1.89,14.35L91.43,207.8l4.14,7.45,4.29-7.08,2.18,1.44-.86,14.07,11.7-4.61,3.16,9.22,8.77-7.63,7.81,7.61,2.82-11.59,22.06,9.37-4.33-11.54ZM27.36,96.41l.36-.53.14.17Zm32.72,78,1.5-2.26.59.73Z"/><circle class="cls-3" cx="262.65" cy="162.73" r="15.94"/><ellipse class="cls-1" cx="269.2" cy="162.73" rx="3.98" ry="13.02"/><circle class="cls-4" cx="269.48" cy="154.75" r="1.94"/><circle class="cls-4" cx="270.39" cy="156.69" r="0.97"/><circle class="cls-3" cx="296.53" cy="154.49" r="15.94"/><ellipse class="cls-1" cx="303.08" cy="154.49" rx="3.98" ry="13.02"/><circle class="cls-4" cx="303.08" cy="147.21" r="1.94"/><circle class="cls-4" cx="304" cy="149.15" r="0.97"/><path class="cls-2" d="M296.6,174.31a23.35,23.35,0,0,1-.94,3.67,24.19,24.19,0,0,1-5,8.37,22.8,22.8,0,0,1-8.92-5.33,21,21,0,0,1-2.09-2.37l2.41-.77A105.55,105.55,0,0,1,294,175"/><path class="cls-4" d="M296.39,188.38l3.71-1.81c.57,2.54,1.15,5.08,1.72,7.62"/><path class="cls-4" d="M282,192.66l4.09-.52q-.4,3.87-.82,7.76"/><path class="cls-1" d="M295.17,288.1a8.6,8.6,0,0,1-12.13-.94l-51.72-38.77a39.24,39.24,0,0,0,8.94-15.06c.69-2.29,1.19-4.34,3-5.87a8.6,8.6,0,0,1,12.13.94L296.11,276A8.6,8.6,0,0,1,295.17,288.1Z"/><path class="cls-1" d="M312.61,249.69h0A8.6,8.6,0,0,1,301.67,255l-46.21-16a8.61,8.61,0,0,1-5.32-10.94h0a29.67,29.67,0,0,0,4.37-4.93,30.89,30.89,0,0,0,5.18-12.59l47.6,28.19Q310,244.23,312.61,249.69Z"/><rect class="cls-1" x="308.69" y="227.6" width="17.2" height="37.03" rx="8.6" transform="translate(147.68 610.09) rotate(-102.82)"/><rect class="cls-1" x="290.92" y="260.9" width="17.2" height="37.03" rx="8.6" transform="translate(93.5 633.45) rotate(-102.82)"/><path class="cls-1" d="M348.35,246a4.56,4.56,0,0,0-2.15-2.66,4.55,4.55,0,0,0-3.06-8.43,4.51,4.51,0,0,0,.28-3.32,4.56,4.56,0,0,0-8.39-.85,5.58,5.58,0,0,0-2.59.51c-4.37,1.94-6.84,8.73-5.52,15.18,1.12,5.5,4.64,8.94,8.37,8.63a4.56,4.56,0,0,0,8.5-3.19,4.52,4.52,0,0,0,4.56-5.87Z"/><ellipse class="cls-1" cx="317.21" cy="275.54" rx="8.26" ry="12.18" transform="translate(-50.37 72.01) rotate(-12.01)"/><circle class="cls-1" cx="319.27" cy="264.88" r="4.57"/><circle class="cls-1" cx="325.37" cy="270.2" r="4.57"/><circle class="cls-1" cx="327.08" cy="277.95" r="4.57"/><circle class="cls-1" cx="323.81" cy="284.55" r="4.57"/><ellipse class="cls-2" cx="334.89" cy="244.16" rx="2.72" ry="5.09" transform="translate(-29.57 46.85) rotate(-7.66)"/><ellipse class="cls-2" cx="338.12" cy="243.54" rx="2.66" ry="3.01"/><circle class="cls-2" cx="339.11" cy="232.27" r="2.45"/><circle class="cls-2" cx="344.8" cy="239.1" r="2.45"/><circle class="cls-2" cx="344.8" cy="247.54" r="2.45"/><circle class="cls-2" cx="340.14" cy="254.38" r="2.45"/><path class="cls-1" d="M65.14,298.88a8.61,8.61,0,0,1,1-12.13l38.95-51.59a39.15,39.15,0,0,0,15,9c2.3.71,4.34,1.21,5.86,3a8.61,8.61,0,0,1-1,12.13L77.27,299.85A8.61,8.61,0,0,1,65.14,298.88Z"/><path class="cls-1" d="M31.61,258.19h0a8.61,8.61,0,0,1,2.92-11.81L76.39,221.1A8.61,8.61,0,0,1,88.2,224h0a29.92,29.92,0,0,0,1,6.51,30.94,30.94,0,0,0,6.37,12L43.42,261.11Z"/><rect class="cls-1" x="22.77" y="245.56" width="17.2" height="37.03" rx="8.6" transform="translate(123.16 14.49) rotate(26.97)"/><rect class="cls-1" x="65.21" y="284.74" width="17.2" height="37.03" rx="8.6" transform="translate(-64.52 23.47) rotate(-12.63)"/><path class="cls-1" d="M11.55,288a4.55,4.55,0,0,0,3.42.06,4.55,4.55,0,0,0,8.44,3,4.48,4.48,0,0,0,2.37,2.34,4.57,4.57,0,0,0,6-5.91,5.75,5.75,0,0,0,1.26-2.31c1.3-4.6-2.34-10.85-8.13-14-5-2.65-9.85-2.15-12,.91a4.56,4.56,0,0,0-3,8.58A4.35,4.35,0,0,0,9.13,282,4.57,4.57,0,0,0,11.55,288Z"/><ellipse class="cls-1" cx="77.64" cy="320.96" rx="12.18" ry="8.26" transform="translate(-64.09 22.71) rotate(-11.82)"/><ellipse class="cls-2" cx="21.6" cy="278.85" rx="2.72" ry="5.09" transform="translate(-226.06 148.9) rotate(-57.88)"/><ellipse class="cls-2" cx="20.02" cy="281.73" rx="2.66" ry="3.01" transform="translate(-209.3 116.85) rotate(-50.22)"/><circle class="cls-2" cx="28.04" cy="289.7" r="2.45"/><circle class="cls-2" cx="19.15" cy="289.71" r="2.45"/><circle class="cls-2" cx="12.67" cy="284.31" r="2.45"/><circle class="cls-2" cx="10.39" cy="276.35" r="2.45"/><line class="cls-5" x1="270.23" y1="167.24" x2="462.9" y2="157.66"/><line class="cls-6" x1="271.67" y1="166.95" x2="458.09" y2="157.69"/><line class="cls-5" x1="303.3" y1="155.58" x2="463.02" y2="155.58"/><line class="cls-6" x1="304.76" y1="156.34" x2="463.02" y2="156.34"/><ellipse class="cls-1" cx="77.93" cy="323.14" rx="12.18" ry="8.26" transform="translate(-64.53 22.81) rotate(-11.82)"/><circle class="cls-1" cx="88.58" cy="325.22" r="4.57"/><circle class="cls-1" cx="83.24" cy="331.31" r="4.57"/><circle class="cls-1" cx="75.49" cy="332.99" r="4.57"/><circle class="cls-1" cx="68.9" cy="329.7" r="4.57"/><path class="cls-7" d="M183.49,80.81l1.19,16.06L173.84,80.5a99.73,99.73,0,0,1-9.6-43V28.35c0-9.56,6.49-17.31,14.5-17.31h0c8,0,14.49,7.75,14.49,17.31v8.78A101.38,101.38,0,0,1,183.49,80.81Z"/><path class="cls-8" d="M217.45,142.57h0c6.26-3.35,8.46-11.45,1.91-18.08l-25.17-47c.39-4.88-5.46-6.84-10.07-4.37l-3,1.61Z"/><path class="cls-9" d="M182.44,90.16,167.81,69.61l4.2-3c6.43-4.58,14.1-4.84,17.13-.58l9.14,12.85Z"/><path class="cls-7" d="M173.1,81.58l-5.32,10.33-5.49-10.65a98.25,98.25,0,0,1-10.74-44.9V26.83c0-10,7.27-18,16.23-18h0c9,0,16.23,8.08,16.23,18V36A99.74,99.74,0,0,1,173.1,81.58Z"/><path class="cls-10" d="M159.65,152.94a15.76,15.76,0,0,1-14.8,10.36H125.38a15.75,15.75,0,0,1-14.8-21.12h0l4.3-6a40.15,40.15,0,0,0,3.8-6.61l3.84-8.46h0l13.78-49.55h0a15.74,15.74,0,0,1,14.79-10.35h19.41a15.78,15.78,0,0,1,14.83,21.18h0a10.91,10.91,0,0,0,.9,8.41h0a5.79,5.79,0,0,1,.73,4.7,6.24,6.24,0,0,1-3.46,4.26l-1.57.6c-1.78.68-3.17.1-3.82,1.88"/><ellipse class="cls-7" cx="167.97" cy="33.75" rx="26.02" ry="28.88"/><path class="cls-7" d="M159.9,63.66c.46,4.58,1.07,9.35,1.86,14.3q.87,5.34,1.89,10.34A79.34,79.34,0,0,1,152.34,73a74.49,74.49,0,0,1-9.6-39V25.76c0-8.66,6.49-15.68,14.5-15.68h0c8,0,14.49,7,14.49,15.68v8a26.06,26.06,0,0,1-2.48,20.48A29,29,0,0,1,159.9,63.66Z"/><circle class="cls-11" cx="138.79" cy="74.95" r="0.27"/><path class="cls-12" d="M175.74,58.13V52.41H154.85v.39h1.45v6.94h-1l-.47,3.82a9.75,9.75,0,0,0,9.74,9.75H166a9.75,9.75,0,0,0,9.74-9.75V62l-.7-.33-1.07.06V58.13Z"/><path class="cls-4" d="M155.55,53.12H175a0,0,0,0,1,0,0v9.74a9.74,9.74,0,0,1-9.74,9.74h0a9.74,9.74,0,0,1-9.74-9.74V53.12A0,0,0,0,1,155.55,53.12Z"/><path class="cls-8" d="M183.05,16.55a15.77,15.77,0,0,1,2.82,8.19V43.56a13.92,13.92,0,0,1-4.78,10.81l-6.71,5.45a9.3,9.3,0,0,1-12.52-.45l-1.59-1.46-3.05-2.8L153.84,52a12.13,12.13,0,0,1-3.66-8.87l-.05-19.25a14.83,14.83,0,0,1,2.59-7.58C159,7.61,176.5,7.62,183.05,16.55Z"/><path class="cls-13" d="M174.59,59.65l-.21.17a9.31,9.31,0,0,1-12.52-.44l-1.59-1.47-3-2.79-1.91-1.76v7.32l.82.75,1.59,1.46a9.3,9.3,0,0,0,12.52.45l4.34-3.52Z"/><path class="cls-14" d="M174.38,59.82a9.3,9.3,0,0,1-12.52-.45"/><path class="cls-15" d="M174.38,59.82a9.3,9.3,0,0,1-12.52-.45"/><path class="cls-16" d="M166.76,28.23a27.48,27.48,0,0,0-4.27,0s-3.37.24-5,1.38a3,3,0,0,0-.53.49,2.16,2.16,0,0,0-.22.36,20.15,20.15,0,0,1,10.17-.16,1,1,0,0,0,.64-.25.76.76,0,0,0,.25-.59V29A.88.88,0,0,0,166.76,28.23Z"/><path class="cls-17" d="M181.48,36.13a3.61,3.61,0,0,0-2.77-2.19,3.94,3.94,0,0,0-4.3,2.28"/><path class="cls-16" d="M175,28.23a27.48,27.48,0,0,1,4.27,0s3.37.24,5,1.38a2.75,2.75,0,0,1,.52.49,1.65,1.65,0,0,1,.22.36,20.15,20.15,0,0,0-10.17-.16,1,1,0,0,1-.63-.25.81.81,0,0,1-.26-.59V29A.87.87,0,0,1,175,28.23Z"/><path class="cls-17" d="M164.17,49.83a10.18,10.18,0,0,0,13,0"/><path class="cls-16" d="M183.3,50.43a2.78,2.78,0,0,1-.63,1.3,2.89,2.89,0,0,1-1.88.93,2.87,2.87,0,0,0,2-2.33,1.69,1.69,0,0,0-.14-.73.41.41,0,0,1,.39-.46.4.4,0,0,1,.4.43Z"/><circle class="cls-16" cx="181.73" cy="51.25" r="0.27"/><circle class="cls-16" cx="161.78" cy="50.9" r="0.27"/><path class="cls-17" d="M168.71,43.66l-.05.42a.59.59,0,0,0,.45.41c.25,0,.48-.11.85,0a.69.69,0,0,1,.23.07,2.14,2.14,0,0,0,1,.25h.51a1,1,0,0,0,.61-.19,1,1,0,0,1,.41-.18c.33-.06.54.14.8.1s.29-.11.39-.4v-.44"/><line class="cls-17" x1="172.98" y1="41.36" x2="171.61" y2="32.86"/><path class="cls-17" d="M159.92,36a3.64,3.64,0,0,1,2.76-2.16A4,4,0,0,1,167,36"/><circle class="cls-16" cx="165.81" cy="39.27" r="0.17"/><circle class="cls-16" cx="182.23" cy="39.44" r="0.17"/><path class="cls-18" d="M166.53,42.31a12.06,12.06,0,0,0-5.73,3.42"/><path class="cls-18" d="M176.83,42.76a9.66,9.66,0,0,1,4.6,3.69"/><circle class="cls-19" cx="162.25" cy="40.52" r="3.05"/><circle class="cls-19" cx="178.79" cy="40.52" r="3.05"/><path class="cls-20" d="M176.49,50.66c0,.36-.66,1-1.89,1.5a15.68,15.68,0,0,1-4,1.07,10,10,0,0,1-3.52-.9c-1.31-.61-2.33-1.54-2.33-1.93,0-.77,4.55.73,6,.73S176.49,49.88,176.49,50.66Z"/><path class="cls-7" d="M150.93,30.18,147.4,31.4,147,27.58a20.26,20.26,0,0,1,2.79-13.21l1.44-2.27c1.5-2.37,5.41-2.6,8.72-.5h0c3.32,2.1,4.79,5.73,3.28,8.1l-1.38,2.18A20.5,20.5,0,0,1,150.93,30.18Z"/><path class="cls-7" d="M157.27,26.84l-3.52,1.21-.43-3.82a20.17,20.17,0,0,1,2.8-13.2l1.43-2.27c1.51-2.38,5.41-2.6,8.73-.5h0c3.31,2.1,4.78,5.72,3.28,8.1l-1.38,2.18A20.49,20.49,0,0,1,157.27,26.84Z"/><path class="cls-7" d="M163.21,25.33l-3.52,1.21-.43-3.82a20.2,20.2,0,0,1,2.8-13.21l1.43-2.27c1.51-2.37,5.41-2.59,8.73-.5h0c3.31,2.1,4.78,5.73,3.28,8.1L174.12,17A20.5,20.5,0,0,1,163.21,25.33Z"/><path class="cls-7" d="M167.91,25.64l-3.53,1.22L164,23a20.19,20.19,0,0,1,2.79-13.21l1.44-2.27c1.5-2.37,5.41-2.6,8.72-.5h0c3.32,2.1,4.79,5.73,3.28,8.1l-1.38,2.18A20.5,20.5,0,0,1,167.91,25.64Z"/><path class="cls-7" d="M175.41,28.3l-3.19,1.17L171.9,26a19.12,19.12,0,0,1,2.72-12.11l1.33-2.1c1.39-2.19,4.9-2.46,7.85-.59h0c2.94,1.86,4.2,5.15,2.81,7.34l-1.27,2A19.41,19.41,0,0,1,175.41,28.3Z"/><path class="cls-7" d="M181.94,27.33l-1.78.65L180,26a10.6,10.6,0,0,1,1.52-6.75l.74-1.17c.77-1.23,2.73-1.37,4.37-.33h0c1.65,1,2.35,2.87,1.58,4.09L187.48,23A10.94,10.94,0,0,1,181.94,27.33Z"/><path class="cls-7" d="M153.49,67.82l-1.59,7.66L150,67.64a154.7,154.7,0,0,1-4-33.11l-.11-7c-.11-7.36,2.12-13.37,5-13.42h0c2.87,0,5.3,5.89,5.41,13.26l.11,6.76A157.26,157.26,0,0,1,153.49,67.82Z"/><path class="cls-21" d="M150.47,31.56a4,4,0,0,0-3.4.2,4,4,0,1,0,3.82,7"/><path class="cls-21" d="M147.48,33.51a1.85,1.85,0,0,1,2.05,1.63"/><path class="cls-7" d="M190.86,73.11l-1.12,7.65-1.39-7.85a211.43,211.43,0,0,1-3-33.12l-.11-7c-.12-7.36,1.47-13.36,3.55-13.39h0c2.08,0,3.86,5.91,4,13.27l.11,6.77A214,214,0,0,1,190.86,73.11Z"/><path class="cls-3" d="M176.08,163.3H149.19V143.52c9,.38,18,2.17,26.94,2.55C176.11,152.28,176.1,157.09,176.08,163.3Z"/><path class="cls-22" d="M183.47,259.43l-37.72-12a10.82,10.82,0,0,1-1.33-7.48c1-4.45,5-6.49,5.92-6.94,2.37.89,8.69,1.63,15.36,5,7.78,3.93,16.09,10.59,19.85,12,2.24,2.18,4.11,2,3.06,4.82A8,8,0,0,1,183.47,259.43Z"/><path class="cls-8" d="M151.83,224.13,150.1,230a8.7,8.7,0,0,0,16.69,4.94L170,224.13Z"/><path class="cls-3" d="M184.75,147.61l-8.62-1.54-23.46,79.26c5.21,2.66,10.76,4.53,16.13,6.83l21.82-73.74A8.69,8.69,0,0,0,184.75,147.61Z"/><rect class="cls-7" x="148.03" y="223.36" width="24.11" height="7.11" rx="3.55" transform="translate(76.38 -37.87) rotate(17.66)"/><path class="cls-23" d="M182.58,262.46l-37-11.79a3.2,3.2,0,0,1-2.08-4l.47-1.47c8.66,2.54,15.35,4.76,19.87,6.32a84.94,84.94,0,0,0,17.43,4.64c2.63.36,4.82.52,6.28.6Z"/><path class="cls-11" d="M183.89,256.44c-1.42-.09-3.32-.25-5.54-.56-7.29-1-12.28-2.86-17.43-4.64-4-1.39-9.8-3.3-17.15-5.51l.18-.57c8.66,2.55,15.35,4.77,19.87,6.33a84.52,84.52,0,0,0,17.43,4.63C182.19,256.25,183.08,256.36,183.89,256.44Z"/><path class="cls-11" d="M187.53,256.73l-4.95,5.72-2.44-.78,4.47-5.16C185.76,256.62,186.75,256.69,187.53,256.73Z"/><path class="cls-23" d="M184.63,256.48l0,0-.56-.06Z"/><path class="cls-24" d="M184,260.76l-40.26-12.82a.7.7,0,0,1-.47-.89l.22-.68,41.54,13.22Z"/><path class="cls-25" d="M109.65,145.54c-.61,9.56,6.43,18.3,16,18.29l19.76,0a16.07,16.07,0,0,0,15-11.31l2.38-7Z"/><path class="cls-8" d="M144.29,72.22h0c-6.68,2.41-10.42,9-8.36,14.71l14.62,40.45c1.51,4.2,6.73,6.16,11.64,4.39l3.2-1.16Z"/><path class="cls-9" d="M151.23,85.24l-3-25-4.79.58c-7.35.89-12.79,5.82-12.16,11l1.9,15.65Z"/><path class="cls-8" d="M161,119.67l44.83,8.5h0c-1.32,7-6.58,11.85-11.74,10.87l-36.56-6.93"/><path class="cls-3" d="M165,163.3H138.55c-6.36,0-11.51-4.76-11.51-10.63S132.19,142,138.55,142c8.86.4,17.72,2.65,26.58,3.05C165.09,151.77,165.06,156.62,165,163.3Z"/><path class="cls-1" d="M261.22,143.2l-40.66,29.33c-6.95-6.38-19.48-19.34-27.38-38a89.63,89.63,0,0,1-4.45-13.16L199,121"/><path class="cls-2" d="M244.87,144.82l-22.32,16.1a61.75,61.75,0,0,1-15-20.84,49.59,49.59,0,0,1-2.44-7.22l5.62-.2"/></g></g></svg>