<svg xmlns="http://www.w3.org/2000/svg" viewBox="0 0 466.02 337.57" xmlns:v="https://vecta.io/nano"><style><![CDATA[.Z{stroke-miterlimit:10}.a{stroke:#a68148}.b{fill:#fff}.c{fill:#231f20}.d{fill:none}.e{stroke-linecap:round}.f{fill:#4c4045}.g{fill:#fcb771}.h{fill:#f4d070}.i{fill:#a68148}]]></style><path d="M249.05 227.12l58.46-12.56-37-15 22.5-14.48-32.3-2.23 16.5-21.08-48 6.1-1.4-42.52-51.57 25.47L156.4 128l-14.26 19.45-23.4-13.9-3.67 20.3-37-2.8q5.74 16.26 11.5 32.52l-48.65 5.4 15.93 18.85-24.4.72L64.7 228.7q-5.15 8.42-10.3 16.83l37.34-1.06-7.2 32.52 35.74-3.9q2.8 9.58 5.57 19.18l44.73-23.06 24.26 19.8 8.5-19.12 43.9 13.12-7.67-23a39.38 39.38 0 0 0 28.84-11.8q-9.67-10.57-19.37-21.08zm29.45-90.87l49.5 7.88c3.33-8.83 8.68-26 7.35-46.22a89.52 89.52 0 0 0-2-13.75l-9.3 4.28" class="c"/><path d="M293.82 130.34l27.18 4.32a61.64 61.64 0 0 0 4-25.37 49.37 49.37 0 0 0-1.08-7.55l-5.1 2.35" class="g"/><path d="M323.07 191l16.78-13.5-7.33-16.65 12.75-13.24-18.36-2 9.38-19.32-27.3 5.54-.8-39-29.3 23.37-11.27-21-8.1 17.84-13.3-12.73-2.08 18.7-28-8.43 13.48 35.67-36 6.43 17.4 15.8-17.4 9.27 21.86 9.86-10.9 15.62 26.3-1.22-5.3 38.44 21.5-12.2 4.16 23.13 24.43-26.68 9.15 12 9.47-11.43 9.35 4.5q2.56-9.74 5.15-19.48l24-2.25zm-155.64 26l-12.53-15.5 8.35-1.75-5.5-6.2 3.93-3.2-10.85-5.82 1.9-10.8-11.44 1.08-5.74-9.74-10.85.1-2.84-3.7 1.06-1.52-2.53-.38-1.8-2.36-1 1.94-3-.46 4.25-12-12.35 3.48-2.13-13.9-11.5 4.2-4-10.25 5.27-7.5-12.9-8.74q4.47-7.06 8.93-14.13L79.7 96.2l8.93-13.1-8.3-1.26 4.25-12-12.35 3.48L75.8 52.5l-13.25-2.93q3.06-7.82 6.1-15.64l-8.3-1.27 4.25-12-12.35 3.5L51.85 0 38.58 14.48l-5.1-13-3.67 11.06-6-7.9-.95 11.54L10.18 11l6.1 22.13L0 37.08l7.87 9.8L0 52.63l9.9 6.12-4.95 9.7L19.3 75.1q-2.4 8.22-4.84 16.44L26 97.44l-6 4.36 9.9 6.12-4.95 9.72 11.27 5.6-10.7 2.62 7.86 9.8-7.86 5.75 9.9 6.12-4.95 9.72 11.9-.75L40 180.35l9.74-7.56 1.88 14.35 7.67 7.33 11.9-.75-2.4 23.84 9.68-7.56 1.9 14.35 11.06-16.55 4.14 7.45 4.3-7.08 2.18 1.44-.86 14.07 11.7-4.6 3.16 9.22 8.77-7.63 7.8 7.6 2.82-11.6 22.06 9.37-4.33-11.54zM27.36 96.4l.36-.53.14.17zm32.72 78l1.5-2.26.6.73z" class="c"/><circle cx="262.65" cy="162.73" r="15.94" class="h"/><ellipse cx="269.2" cy="162.73" rx="3.98" ry="13.02" class="c"/><g class="b"><circle cx="269.48" cy="154.75" r="1.94"/><circle cx="270.39" cy="156.69" r=".97"/></g><circle cx="296.53" cy="154.49" r="15.94" class="h"/><ellipse cx="303.08" cy="154.49" rx="3.98" ry="13.02" class="c"/><g class="b"><circle cx="303.08" cy="147.21" r="1.94"/><circle cx="304" cy="149.15" r=".97"/></g><path d="M296.6 174.3a23.35 23.35 0 0 1-.94 3.67 24.19 24.19 0 0 1-5 8.37 22.8 22.8 0 0 1-8.92-5.33 21 21 0 0 1-2.09-2.37l2.4-.77A105.55 105.55 0 0 1 294 175" class="g"/><path d="M296.4 188.38l3.7-1.8 1.72 7.62M282 192.66l4.1-.52q-.4 3.87-.82 7.76" class="b"/><g class="c"><path d="M295.17 288.1a8.6 8.6 0 0 1-12.13-.94l-51.72-38.77a39.24 39.24 0 0 0 8.94-15.06c.7-2.3 1.2-4.34 3-5.87a8.6 8.6 0 0 1 12.13.94L296.1 276a8.6 8.6 0 0 1-.94 12.1z"/><path d="M312.6 249.7h0a8.6 8.6 0 0 1-10.94 5.31l-46.2-16a8.61 8.61 0 0 1-5.32-10.94h0a29.67 29.67 0 0 0 4.37-4.93 30.89 30.89 0 0 0 5.18-12.59l47.6 28.2q2.7 5.5 5.32 10.96z"/><rect x="308.69" y="227.6" width="17.2" height="37.03" rx="8.6" transform="matrix(-.221889 -.975072 .975072 -.221889 147.68 610.09)"/><rect x="290.92" y="260.9" width="17.2" height="37.03" rx="8.6" transform="matrix(-.221889 -.975072 .975072 -.221889 93.5 633.45)"/><path d="M348.35,246a4.56,4.56,0,0,0-2.15-2.66,4.55,4.55,0,0,0-3.06-8.43,4.51,4.51,0,0,0,.28-3.32,4.56,4.56,0,0,0-8.39-.85,5.58,5.58,0,0,0-2.59.51c-4.37,1.94-6.84,8.73-5.52,15.18,1.12,5.5,4.64,8.94,8.37,8.63a4.56,4.56,0,0,0,8.5-3.19,4.52,4.52,0,0,0,4.56-5.87Z"/><ellipse cx="317.21" cy="275.54" rx="8.26" ry="12.18" transform="matrix(.978111 -.208082 .208082 .978111 -50.37 72.01)"/><circle cx="319.27" cy="264.88" r="4.57"/><circle cx="325.37" cy="270.2" r="4.57"/><circle cx="327.08" cy="277.95" r="4.57"/><circle cx="323.81" cy="284.55" r="4.57"/></g><g class="g"><ellipse cx="334.89" cy="244.16" rx="2.72" ry="5.09" transform="matrix(.991076 -.133294 .133294 .991076 -29.57 46.85)"/><ellipse cx="338.12" cy="243.54" rx="2.66" ry="3.01"/><circle cx="339.11" cy="232.27" r="2.45"/><circle cx="344.8" cy="239.1" r="2.45"/><circle cx="344.8" cy="247.54" r="2.45"/><circle cx="340.14" cy="254.38" r="2.45"/></g><g class="c"><path d="M65.14 298.88a8.61 8.61 0 0 1 1-12.13l38.95-51.6a39.15 39.15 0 0 0 15 9c2.3.7 4.34 1.2 5.86 3a8.61 8.61 0 0 1-1 12.13l-47.68 40.56a8.61 8.61 0 0 1-12.13-.97zM31.6 258.2h0a8.61 8.61 0 0 1 2.92-11.81l41.88-25.3a8.61 8.61 0 0 1 11.8 2.9h0a29.92 29.92 0 0 0 1 6.51 30.94 30.94 0 0 0 6.37 12l-52.15 18.6z"/><rect x="22.77" y="245.56" width="17.2" height="37.03" rx="8.6" transform="matrix(.891244 .453524 -.453524 .891244 123.16 14.49)"/><rect x="65.21" y="284.74" width="17.2" height="37.03" rx="8.6" transform="matrix(.975802 -.218654 .218654 .975802 -64.52 23.47)"/><path d="M11.55 288a4.55 4.55 0 0 0 3.42.06 4.55 4.55 0 0 0 8.44 3 4.48 4.48 0 0 0 2.37 2.34 4.57 4.57 0 0 0 6-5.91 5.75 5.75 0 0 0 1.26-2.31c1.3-4.6-2.34-10.85-8.13-14-5-2.65-9.85-2.15-12 .9a4.56 4.56 0 0 0-3 8.58 4.35 4.35 0 0 0-.78 1.33 4.57 4.57 0 0 0 2.42 6z"/><ellipse cx="77.64" cy="320.96" rx="12.18" ry="8.26" transform="matrix(.978796 -.204838 .204838 .978796 -64.09 22.71)"/></g><g class="g"><ellipse cx="21.6" cy="278.85" rx="2.72" ry="5.09" transform="matrix(.531694 -.846936 .846936 .531694 -226.06 148.9)"/><ellipse cx="20.02" cy="281.73" rx="2.66" ry="3.01" transform="matrix(.639841 -.768507 .768507 .639841 -209.3 116.85)"/><circle cx="28.04" cy="289.7" r="2.45"/><circle cx="19.15" cy="289.71" r="2.45"/><circle cx="12.67" cy="284.31" r="2.45"/><circle cx="10.39" cy="276.35" r="2.45"/></g><g class="Z e"><path d="M270.23 167.24l192.67-9.58" stroke="#43c0c0" stroke-width="6" class="d"/><path d="M271.67 166.95l186.42-9.26" fill="#d24e45" stroke="#fff"/><path d="M303.3 155.58h159.72" stroke="#43c0c0" stroke-width="6" class="d"/><path d="M304.76 156.34h158.26" fill="#d24e45" stroke="#fff"/></g><g class="c"><ellipse cx="77.93" cy="323.14" rx="12.18" ry="8.26" transform="matrix(.978796 -.204838 .204838 .978796 -64.53 22.81)"/><circle cx="88.58" cy="325.22" r="4.57"/><circle cx="83.24" cy="331.31" r="4.57"/><circle cx="75.49" cy="332.99" r="4.57"/><circle cx="68.9" cy="329.7" r="4.57"/></g><path d="M183.5 80.8l1.2 16.06-10.84-16.37a99.73 99.73 0 0 1-9.6-43v-9.15c0-9.56 6.5-17.3 14.5-17.3h0c8 0 14.5 7.75 14.5 17.3v8.78a101.38 101.38 0 0 1-9.74 43.68z" class="f"/><path d="M217.45 142.57h0c6.26-3.35 8.46-11.45 1.9-18.08l-25.17-47c.4-4.88-5.46-6.84-10.07-4.37l-3 1.6z" class="Z a b"/><path d="M182.44 90.16L167.8 69.6l4.2-3c6.43-4.58 14.1-4.84 17.13-.58l9.14 12.85z" fill="#20a39e"/><path d="M173.1 81.58l-5.32 10.33-5.5-10.65a98.25 98.25 0 0 1-10.74-44.9v-9.53c0-10 7.27-18 16.23-18h0c9 0 16.23 8.08 16.23 18V36a99.74 99.74 0 0 1-10.91 45.58z" class="f"/><path d="M159.65 152.94a15.76 15.76 0 0 1-14.8 10.36h-19.47a15.75 15.75 0 0 1-14.8-21.12h0l4.3-6a40.15 40.15 0 0 0 3.8-6.61l3.84-8.46 13.78-49.55a15.74 15.74 0 0 1 14.79-10.35h19.4a15.78 15.78 0 0 1 14.83 21.18h0a10.91 10.91 0 0 0 .9 8.41h0a5.79 5.79 0 0 1 .73 4.7 6.24 6.24 0 0 1-3.46 4.26l-1.57.6c-1.78.68-3.17.1-3.82 1.88" fill="#392f5a"/><g class="f"><ellipse cx="167.97" cy="33.75" rx="26.02" ry="28.88"/><path d="M159.9 63.66c.46 4.58 1.07 9.35 1.86 14.3q.87 5.34 1.9 10.34A79.34 79.34 0 0 1 152.34 73a74.49 74.49 0 0 1-9.6-39v-8.24c0-8.66 6.5-15.68 14.5-15.68h0c8 0 14.5 7 14.5 15.68v8a26.06 26.06 0 0 1-2.48 20.48 29 29 0 0 1-9.35 9.42z"/></g><circle cx="138.79" cy="74.95" r=".27" fill="#bcbec0"/><path d="M175.74 58.13V52.4h-20.9v.4h1.45v6.94h-1l-.47 3.82a9.75 9.75 0 0 0 9.74 9.75H166a9.75 9.75 0 0 0 9.74-9.75V62l-.7-.33-1.07.06v-3.6z" fill="#cdb6d4"/><g class="b"><path d="M155.55 53.12H175a0 0 0 0 1 0 0v9.74a9.74 9.74 0 0 1-9.74 9.74h0a9.74 9.74 0 0 1-9.74-9.74v-9.74a0 0 0 0 1 .03 0z"/><path d="M183.05 16.55a15.77 15.77 0 0 1 2.82 8.19v18.82a13.92 13.92 0 0 1-4.78 10.81l-6.7 5.45a9.3 9.3 0 0 1-12.52-.45l-4.64-4.26-3.38-3.1a12.13 12.13 0 0 1-3.66-8.87l-.05-19.25a14.83 14.83 0 0 1 2.59-7.58c6.28-8.7 23.78-8.68 30.33.25z" class="Z a"/></g><path d="M174.6 59.65l-.2.17a9.31 9.31 0 0 1-12.52-.44l-1.6-1.47-3-2.8-1.9-1.76v7.32l.82.75 1.6 1.46a9.3 9.3 0 0 0 12.52.45l4.34-3.52z" opacity=".2" class="i"/><g class="Z"><path d="M174.38,59.82a9.3,9.3,0,0,1-12.52-.45" stroke="#2bb673" class="b"/><path d="M174.38,59.82a9.3,9.3,0,0,1-12.52-.45" class="a d"/></g><path d="M166.76 28.23a27.48 27.48 0 0 0-4.27 0s-3.37.24-5 1.38a3 3 0 0 0-.53.49 2.16 2.16 0 0 0-.22.36 20.15 20.15 0 0 1 10.17-.16 1 1 0 0 0 .64-.25.76.76 0 0 0 .25-.59V29a.88.88 0 0 0-1.04-.77z" class="i"/><path d="M181.48,36.13a3.61,3.61,0,0,0-2.77-2.19,3.94,3.94,0,0,0-4.3,2.28" class="Z a d e"/><path d="M175 28.23a27.48 27.48 0 0 1 4.27 0s3.37.24 5 1.38a2.75 2.75 0 0 1 .52.49 1.65 1.65 0 0 1 .22.36 20.15 20.15 0 0 0-10.17-.16 1 1 0 0 1-.63-.25.81.81 0 0 1-.26-.59V29a.87.87 0 0 1 1.05-.77z" class="i"/><path d="M164.17,49.83a10.18,10.18,0,0,0,13,0" class="Z a d e"/><g class="i"><path d="M183.3,50.43a2.78,2.78,0,0,1-.63,1.3,2.89,2.89,0,0,1-1.88.93,2.87,2.87,0,0,0,2-2.33,1.69,1.69,0,0,0-.14-.73.41.41,0,0,1,.39-.46.4.4,0,0,1,.4.43Z"/><circle cx="181.73" cy="51.25" r=".27"/><circle cx="161.78" cy="50.9" r=".27"/></g><path d="M168.7 43.66l-.05.42a.59.59 0 0 0 .45.41c.25 0 .48-.1.85 0a.69.69 0 0 1 .23.07 2.14 2.14 0 0 0 1 .25h.5a1 1 0 0 0 .61-.19 1 1 0 0 1 .41-.18c.33-.06.54.14.8.1s.3-.1.4-.4v-.44m-.92-2.34l-1.37-8.5M159.92 36a3.64 3.64 0 0 1 2.76-2.16A4 4 0 0 1 167 36" class="Z a d e"/><g class="i"><circle cx="165.81" cy="39.27" r=".17"/><circle cx="182.23" cy="39.44" r=".17"/></g><path d="M166.53 42.3a12.06 12.06 0 0 0-5.73 3.42m16.03-2.96a9.66 9.66 0 0 1 4.6 3.69" stroke-width=".5" class="Z a d e"/><g fill="#f2baac"><circle cx="162.25" cy="40.52" r="3.05" opacity=".2"/><circle cx="178.79" cy="40.52" r="3.05" opacity=".2"/><path d="M176.5 50.66c0 .36-.66 1-1.9 1.5a15.68 15.68 0 0 1-4 1.07 10 10 0 0 1-3.52-.9c-1.3-.6-2.33-1.54-2.33-1.93 0-.77 4.55.73 6 .73s5.74-1.25 5.74-.47z" opacity=".3"/></g><g class="f"><path d="M150.93 30.18l-3.53 1.22-.4-3.82a20.26 20.26 0 0 1 2.79-13.21l1.44-2.27c1.5-2.37 5.4-2.6 8.72-.5h0c3.32 2.1 4.8 5.73 3.28 8.1l-1.38 2.18a20.5 20.5 0 0 1-10.92 8.3z"/><path d="M157.27 26.84l-3.52 1.2-.43-3.82a20.17 20.17 0 0 1 2.8-13.2l1.43-2.27c1.5-2.38 5.4-2.6 8.73-.5h0c3.3 2.1 4.78 5.72 3.28 8.1l-1.38 2.18a20.49 20.49 0 0 1-10.91 8.3z"/><path d="M163.2 25.33l-3.52 1.2-.43-3.82a20.2 20.2 0 0 1 2.8-13.21l1.43-2.27c1.5-2.37 5.4-2.6 8.73-.5h0c3.3 2.1 4.78 5.73 3.28 8.1L174.12 17a20.5 20.5 0 0 1-10.91 8.33z"/><path d="M167.9 25.64l-3.53 1.22L164 23a20.19 20.19 0 0 1 2.79-13.21l1.44-2.27c1.5-2.37 5.4-2.6 8.72-.5h0c3.32 2.1 4.8 5.73 3.28 8.1l-1.38 2.18a20.5 20.5 0 0 1-10.94 8.34z"/><path d="M175.4 28.3l-3.2 1.17-.32-3.47a19.12 19.12 0 0 1 2.72-12.11l1.33-2.1c1.4-2.2 4.9-2.46 7.85-.6h0c2.94 1.86 4.2 5.15 2.8 7.34l-1.27 2a19.41 19.41 0 0 1-9.93 7.76z"/><path d="M181.94 27.33l-1.78.65L180 26a10.6 10.6 0 0 1 1.52-6.75l.74-1.17c.77-1.23 2.73-1.37 4.37-.33h0c1.65 1 2.35 2.87 1.58 4.1l-.73 1.16a10.94 10.94 0 0 1-5.54 4.33zm-28.44 40.5l-1.6 7.66-1.9-7.84a154.7 154.7 0 0 1-4-33.11l-.1-7c-.1-7.36 2.12-13.37 5-13.42h0c2.87 0 5.3 5.9 5.4 13.26l.1 6.76a157.26 157.26 0 0 1-2.92 33.69z"/></g><g class="Z a b e"><path d="M150.47,31.56a4,4,0,0,0-3.4.2,4,4,0,1,0,3.82,7"/><path d="M147.48 33.5a1.85 1.85 0 0 1 2.05 1.63"/></g><path d="M190.86 73.1l-1.12 7.65-1.4-7.85a211.43 211.43 0 0 1-3-33.12l-.1-7c-.12-7.36 1.47-13.36 3.55-13.4h0c2.08 0 3.86 5.9 4 13.27l.1 6.77a214 214 0 0 1-2.04 33.67z" class="f"/><path d="M176.08 163.3h-26.9v-19.78c9 .38 18 2.17 26.94 2.55l-.05 17.23z" class="h"/><path d="M183.47 259.43l-37.72-12a10.82 10.82 0 0 1-1.33-7.48c1-4.45 5-6.5 5.92-6.94 2.37.9 8.7 1.63 15.36 5 7.78 3.93 16.1 10.6 19.85 12 2.24 2.18 4.1 2 3.06 4.82a8 8 0 0 1-5.14 4.6z" fill="#f68820"/><path d="M151.83 224.13L150.1 230a8.7 8.7 0 0 0 16.69 4.94l3.2-10.8z" class="Z a b"/><path d="M184.75 147.6l-8.62-1.54-23.46 79.26c5.2 2.66 10.76 4.53 16.13 6.83l21.82-73.74a8.69 8.69 0 0 0-5.87-10.81z" class="h"/><rect x="148.03" y="223.36" width="24.11" height="7.11" rx="3.55" transform="matrix(.952874 .303368 -.303368 .952874 76.38 -37.87)" class="f"/><path d="M182.58 262.46l-37-11.8a3.2 3.2 0 0 1-2.08-4l.47-1.47c8.66 2.54 15.35 4.76 19.87 6.32a84.94 84.94 0 0 0 17.43 4.64c2.63.36 4.82.52 6.28.6z" fill="#d1d3d4"/><path d="M183.9 256.44l-5.54-.56c-7.3-1-12.28-2.86-17.43-4.64-4-1.4-9.8-3.3-17.15-5.5l.18-.57c8.66 2.55 15.35 4.77 19.87 6.33a84.52 84.52 0 0 0 17.43 4.63c.94.13 1.83.24 2.64.32zm3.63.3l-4.95 5.72-2.44-.78 4.47-5.16 2.92.22z" fill="#bcbec0"/><path d="M184.63 256.48h0l-.56-.06z" fill="#d1d3d4"/><path d="M184,260.76l-40.26-12.82a.7.7,0,0,1-.47-.89l.22-.68,41.54,13.22Z" fill="#58595b"/><path d="M109.65 145.54c-.6 9.56 6.43 18.3 16 18.3h19.76a16.07 16.07 0 0 0 15-11.31l2.38-7z" fill="#a0722a"/><path d="M144.3 72.22h0c-6.68 2.4-10.42 9-8.36 14.7l14.62 40.45c1.5 4.2 6.73 6.16 11.64 4.4l3.2-1.16z" class="Z a b"/><path d="M151.23 85.24l-3-25-4.8.58c-7.35.9-12.8 5.82-12.16 11l1.9 15.65z" fill="#20a39e"/><path d="M161 119.67l44.83 8.5c-1.32 7-6.58 11.85-11.74 10.87l-36.56-6.93" class="Z a b"/><path d="M165 163.3h-26.45c-6.36 0-11.5-4.76-11.5-10.63S132.2 142 138.55 142c8.86.4 17.72 2.65 26.58 3.05L165 163.3z" class="h"/><path d="M261.22,143.2l-40.66,29.33c-6.95-6.38-19.48-19.34-27.38-38a89.63,89.63,0,0,1-4.45-13.16L199,121" class="c"/><path d="M244.87,144.82l-22.32,16.1a61.75,61.75,0,0,1-15-20.84,49.59,49.59,0,0,1-2.44-7.22l5.62-.2" class="g"/></svg>