<?xml version="1.0" encoding="utf-8"?>
<!-- Generator: Adobe Illustrator 24.2.1, SVG Export Plug-In . SVG Version: 6.00 Build 0)  -->
<svg version="1.1" id="Layer_1" xmlns="http://www.w3.org/2000/svg" xmlns:xlink="http://www.w3.org/1999/xlink" x="0px" y="0px"
	 viewBox="0 0 24 24" style="enable-background:new 0 0 24 24;" xml:space="preserve">
<style type="text/css">
	.st0{fill:#F68820;}
	.st1{fill:#20A39E;}
	.st2{fill:#F4D070;}
	.st3{fill:#7ACFE0;}
	.st4{fill:#392F5A;}
</style>
<g id="Layer_2_1_">
	<g id="Layer_1-2">
		<path class="st0" d="M12,8.2H7.9C5.7,8.1,4,6.4,4,4.2l0,0c0-2.1,1.7-3.9,3.9-3.9H12"/>
		<path class="st1" d="M12,16H7.9C5.8,16,4,14.2,4,12.1l0,0C4,10,5.8,8.3,7.9,8.2H12"/>
		<path class="st2" d="M12,0.3h4.1c2.2,0,3.9,1.8,3.9,3.9l0,0c0,2.1-1.7,3.9-3.9,3.9H12"/>
		<ellipse class="st3" cx="16" cy="12.1" rx="3.9" ry="3.9"/>
		<path class="st4" d="M12,19.9c0,2.1-1.8,3.8-3.9,3.8c-2.2,0-3.9-1.7-3.9-3.8C4.1,17.7,5.9,16,8,16h4C12,16,12,18.8,12,19.9z"/>
	</g>
</g>
</svg>
