<svg xmlns="http://www.w3.org/2000/svg" xmlns:xlink="http://www.w3.org/1999/xlink" viewBox="0 0 1104.14 1066.14"><defs><style>.cls-1,.cls-19,.cls-2,.cls-9{fill:none;}.cls-10,.cls-11,.cls-12,.cls-2,.cls-3,.cls-4,.cls-8,.cls-9{stroke:#6f7a33;stroke-width:3px;}.cls-10,.cls-11,.cls-12,.cls-19,.cls-2,.cls-3,.cls-4,.cls-8,.cls-9{stroke-linecap:round;}.cls-2,.cls-8{stroke-linejoin:round;}.cls-3{fill:#fff;}.cls-10,.cls-11,.cls-12,.cls-13,.cls-15,.cls-16,.cls-17,.cls-19,.cls-20,.cls-25,.cls-3,.cls-4,.cls-9{stroke-miterlimit:10;}.cls-4{fill:#231f20;}.cls-23,.cls-5{font-size:36px;font-family:MyriadPro-Regular, Myriad Pro;letter-spacing:-0.01em;}.cls-18,.cls-5,.cls-8{fill:#6f7a33;}.cls-6{letter-spacing:-0.01em;}.cls-7{letter-spacing:0em;}.cls-10,.cls-15{fill:#b2c737;}.cls-11{fill:#839626;}.cls-12,.cls-14{fill:#a2b631;}.cls-13{fill:#8d9f3a;}.cls-13,.cls-20,.cls-25{stroke:#9caf3b;}.cls-15,.cls-16,.cls-17{stroke:#b2c737;}.cls-16{fill:url(#linear-gradient);}.cls-17{fill:url(#linear-gradient-2);}.cls-19{stroke:#645455;stroke-width:4px;}.cls-20,.cls-24{fill:#4e8547;}.cls-21,.cls-23{fill:#79b473;}.cls-22{fill:#9ac695;}.cls-25,.cls-28{fill:#8c9f3a;}.cls-26{fill:#a3b73a;}.cls-27{fill:#b2c736;}</style><linearGradient id="linear-gradient" x1="682.55" y1="591.6" x2="682.55" y2="318.94" gradientUnits="userSpaceOnUse"><stop offset="0" stop-color="#8d9f3a"/><stop offset="1" stop-color="#b2c737"/></linearGradient><linearGradient id="linear-gradient-2" x1="962.04" y1="591.6" x2="962.04" y2="318.94" xlink:href="#linear-gradient"/></defs><g id="Layer_2" data-name="Layer 2"><g id="Layer_1-2" data-name="Layer 1"><rect class="cls-1" width="1104.14" height="1066.14"/><polygon class="cls-2" points="285.03 233.46 87.14 233.46 186.08 33.82 186.09 33.82 285.03 233.46"/><path class="cls-3" d="M229.32,194.84c0,20.46-19.35,37-43.23,37s-43.24-16.58-43.24-37S186.09,65.21,186.09,65.21,229.32,174.39,229.32,194.84Z"/><polyline class="cls-4" points="186.09 230.55 186.09 198.76 186.09 90.53"/><line class="cls-4" x1="205.79" y1="168.3" x2="186.62" y2="198.76"/><line class="cls-4" x1="185.26" y1="158.47" x2="168.41" y2="127.69"/><line class="cls-4" x1="186.62" y1="114.66" x2="195.2" y2="100.03"/><text class="cls-5" transform="translate(132.32 266.51)">g<tspan class="cls-6" x="19.91" y="0">r</tspan><tspan class="cls-7" x="31.32" y="0">eener</tspan></text><polygon class="cls-8" points="523.83 234.83 325.94 234.83 424.88 35.19 424.89 35.19 523.83 234.83"/><path class="cls-3" d="M468.12,196.21c0,20.45-19.36,37-43.24,37s-43.23-16.58-43.23-37S424.88,66.57,424.88,66.57,468.12,175.76,468.12,196.21Z"/><polyline class="cls-4" points="424.88 231.92 424.88 200.13 424.88 91.89"/><line class="cls-4" x1="444.58" y1="169.67" x2="425.41" y2="200.13"/><line class="cls-4" x1="424.06" y1="159.84" x2="407.21" y2="129.06"/><line class="cls-4" x1="425.41" y1="116.03" x2="434" y2="101.4"/><text class="cls-5" transform="translate(371.12 267.87)">g<tspan class="cls-6" x="19.91" y="0">r</tspan><tspan class="cls-7" x="31.32" y="0">eener</tspan></text><polygon class="cls-8" points="750.03 236.21 552.14 236.21 651.09 36.56 651.1 36.56 750.03 236.21"/><path class="cls-3" d="M694.33,197.59c0,20.45-19.36,37-43.24,37s-43.24-16.58-43.24-37S651.09,68,651.09,68,694.33,177.14,694.33,197.59Z"/><text class="cls-5" transform="translate(597.33 269.25)">g<tspan class="cls-6" x="19.91" y="0">r</tspan><tspan class="cls-7" x="31.32" y="0">eener</tspan></text><polyline class="cls-9" points="612.26 165.12 651.23 226.57 689.47 165.12"/><polyline class="cls-9" points="612.26 144.45 651.23 205.9 689.47 144.45"/><polyline class="cls-9" points="612.26 123.45 651.23 184.9 689.47 123.45"/><polyline class="cls-9" points="617.45 111.93 651.18 165.12 684.28 111.93"/><polygon class="cls-8" points="983.95 237.2 786.06 237.2 885 37.56 885.01 37.56 983.95 237.2"/><path class="cls-3" d="M928.24,198.59c0,20.45-19.36,37-43.24,37s-43.23-16.58-43.23-37S885,69,885,69,928.24,178.14,928.24,198.59Z"/><text class="cls-5" transform="translate(831.24 270.25)">g<tspan class="cls-6" x="19.91" y="0">r</tspan><tspan class="cls-7" x="31.32" y="0">eener</tspan></text><polyline class="cls-9" points="842.64 169.67 885.17 236.74 926.91 169.67"/><polyline class="cls-9" points="858.75 155.06 885.25 196.84 911.25 155.06"/><polyline class="cls-9" points="867.21 137.31 884.94 165.26 902.34 137.31"/><polyline class="cls-9" points="873.57 121.68 885.11 139.88 896.43 121.68"/><polygon class="cls-8" points="246.1 518.54 48.21 518.54 147.15 318.9 147.16 318.9 246.1 518.54"/><path class="cls-10" d="M161.66,410.6c0,6.87-6.49,12.43-14.51,12.43s-14.5-5.56-14.5-12.43,14.5-43.49,14.5-43.49S161.66,403.74,161.66,410.6Z"/><path class="cls-11" d="M161.66,447.08c0-6.86-6.49-12.43-14.51-12.43s-14.5,5.57-14.5,12.43,14.5,43.5,14.5,43.5S161.66,453.94,161.66,447.08Z"/><path class="cls-12" d="M159.58,414.83c-6.86,0-12.43,6.49-12.43,14.5s5.57,14.51,12.43,14.51,43.5-14.51,43.5-14.51S166.44,414.83,159.58,414.83Z"/><path class="cls-12" d="M134.73,443.84c6.86,0,12.42-6.5,12.42-14.51s-5.56-14.5-12.42-14.5-43.5,14.5-43.5,14.5S127.87,443.84,134.73,443.84Z"/><text class="cls-5" transform="translate(93.39 551.58)">g<tspan class="cls-6" x="19.91" y="0">r</tspan><tspan class="cls-7" x="31.32" y="0">eener</tspan></text><polygon class="cls-13" points="538.96 585.87 322.12 585.87 430.54 367.11 430.55 367.11 538.96 585.87"/><polygon class="cls-14" points="511.49 502.02 349.59 502.02 430.54 338.69 430.54 338.69 511.49 502.02"/><polygon class="cls-15" points="485.4 423.89 375.68 423.89 430.54 313.21 430.54 313.21 485.4 423.89"/><polygon class="cls-16" points="790.98 591.6 749.42 507.76 763.51 507.76 724.78 429.63 737.41 429.63 682.56 318.94 682.55 318.94 627.7 429.63 640.32 429.63 601.6 507.76 615.68 507.76 574.13 591.6 790.98 591.6"/><polygon class="cls-17" points="1070.46 591.6 1028.9 507.76 1042.99 507.76 1004.27 429.63 1016.89 429.63 962.04 318.94 962.03 318.94 907.18 429.63 919.8 429.63 881.08 507.76 895.17 507.76 853.61 591.6 1070.46 591.6"/><path class="cls-18" d="M984.44,491.66c0,9.5-9,17.2-20.08,17.2s-20.08-7.7-20.08-17.2,20.08-60.2,20.08-60.2S984.44,482.17,984.44,491.66Z"/><line class="cls-19" x1="964.36" y1="461.25" x2="964.36" y2="611.51"/><polygon class="cls-20" points="792.7 915.26 575.86 915.26 684.27 696.5 684.28 696.5 792.7 915.26"/><polygon class="cls-21" points="765.23 831.41 603.33 831.41 684.27 668.08 684.28 668.08 765.23 831.41"/><polygon class="cls-22" points="739.14 753.28 629.42 753.28 684.27 642.6 684.28 642.6 739.14 753.28"/><text class="cls-23" transform="translate(625.69 997.86)">g<tspan class="cls-6" x="19.91" y="0">r</tspan><tspan class="cls-7" x="31.32" y="0">eener</tspan></text><rect class="cls-22" x="669.38" y="740.43" width="29.8" height="40.4" rx="6.99"/><rect class="cls-21" x="666.22" y="811.48" width="36.12" height="48.97" rx="6.99"/><rect class="cls-24" x="660.53" y="891.11" width="47.49" height="64.39" rx="6.99"/><polygon class="cls-25" points="532.48 918.47 315.63 918.47 424.05 699.71 424.06 699.71 532.48 918.47"/><polygon class="cls-26" points="505.01 834.62 343.1 834.62 424.05 671.28 424.06 671.28 505.01 834.62"/><polygon class="cls-27" points="478.91 756.49 369.2 756.49 424.05 645.81 424.06 645.81 478.91 756.49"/><text class="cls-5" transform="translate(365.47 1001.06)">g<tspan class="cls-6" x="19.91" y="0">r</tspan><tspan class="cls-7" x="31.32" y="0">eener</tspan></text><rect class="cls-27" x="409.16" y="743.64" width="29.8" height="40.4" rx="6.99"/><rect class="cls-26" x="406" y="814.69" width="36.12" height="48.97" rx="6.99"/><rect class="cls-28" x="400.31" y="894.32" width="47.49" height="64.39" rx="6.99"/></g></g></svg>