<svg xmlns="http://www.w3.org/2000/svg" xmlns:xlink="http://www.w3.org/1999/xlink" width="1281" height="782" viewBox="0 0 1281 782"><defs><clipPath id="b"><rect width="1281" height="782"/></clipPath></defs><g id="a" clip-path="url(#b)"><rect width="1281" height="782" fill="#fff"/><g transform="translate(62 135)"><g transform="translate(-91 -179)"><g transform="translate(91 179)" fill="#fff" stroke="#40476d" stroke-width="3"><rect width="122" height="82" rx="5" stroke="none"/><rect x="1.5" y="1.5" width="119" height="79" rx="3.5" fill="none"/></g><text transform="translate(100 187)" fill="#40476d" font-size="18" font-family="ProximaNova-Semibold, Proxima Nova" font-weight="600"><tspan x="0" y="17">Sustainable </tspan><tspan x="0" y="39">Practice </tspan><tspan x="0" y="61">Newbies</tspan></text></g></g><g transform="translate(70 166)"><g transform="translate(-91 -105.5)"><g transform="translate(74 179)" fill="#fff" stroke="#40476d" stroke-width="3"><rect width="139" height="124" rx="5" stroke="none"/><rect x="1.5" y="1.5" width="136" height="121" rx="3.5" fill="none"/></g><text transform="translate(85 195)" fill="#40476d" font-size="18" font-family="ProximaNova-Semibold, Proxima Nova" font-weight="600"><tspan x="0" y="17">Existing </tspan><tspan x="0" y="39">sustainable </tspan><tspan x="0" y="61">practicers </tspan><tspan x="0" y="83">who need a </tspan></text></g></g><text transform="translate(208 108)" fill="#333" font-size="24" font-family="ProximaNova-Bold, Proxima Nova" font-weight="700"><tspan x="0" y="0">Discover</tspan></text><text transform="translate(374 108)" fill="#333" font-size="24" font-family="ProximaNova-Bold, Proxima Nova" font-weight="700"><tspan x="0" y="0">Learning</tspan></text><text transform="translate(776 108)" fill="#333" font-size="24" font-family="ProximaNova-Bold, Proxima Nova" font-weight="700"><tspan x="0" y="0">Using</tspan></text><text transform="translate(1044 108)" fill="#333" font-size="24" font-family="ProximaNova-Bold, Proxima Nova" font-weight="700"><tspan x="0" y="0">Goal</tspan></text><g transform="translate(195 193)"><g transform="translate(13)" fill="#4e8547" stroke="#4e8547" stroke-width="2"><rect width="118" height="29" rx="3" stroke="none"/><rect x="1" y="1" width="116" height="27" rx="2" fill="none"/></g><text transform="translate(21 21)" fill="#fff" font-size="18" font-family="ProximaNova-Semibold, Proxima Nova" font-weight="600"><tspan x="0" y="0">Social Media</tspan></text></g><g transform="translate(195 273)"><g transform="translate(13)" fill="#4e8547" stroke="#4e8547" stroke-width="2"><rect width="118" height="29" rx="3" stroke="none"/><rect x="1" y="1" width="116" height="27" rx="2" fill="none"/></g><text transform="translate(42 21)" fill="#fff" font-size="18" font-family="ProximaNova-Semibold, Proxima Nova" font-weight="600"><tspan x="0" y="0">Friends</tspan></text></g><g transform="translate(283 322)"><g transform="translate(13)" fill="#4e8547" stroke="#4e8547" stroke-width="2"><rect width="118" height="29" rx="3" stroke="none"/><rect x="1" y="1" width="116" height="27" rx="2" fill="none"/></g><text transform="translate(50 21)" fill="#fff" font-size="18" font-family="ProximaNova-Semibold, Proxima Nova" font-weight="600"><tspan x="0" y="0">Invite</tspan></text></g><g transform="translate(361 222)"><g transform="translate(13)" fill="#4e8547" stroke="#4e8547" stroke-width="2"><rect width="118" height="29" rx="3" stroke="none"/><rect x="1" y="1" width="116" height="27" rx="2" fill="none"/></g><text transform="translate(35 21)" fill="#fff" font-size="18" font-family="ProximaNova-Semibold, Proxima Nova" font-weight="600"><tspan x="0" y="0">Appstore</tspan></text></g><g transform="translate(495 222)"><g transform="translate(13)" fill="#4e8547" stroke="#4e8547" stroke-width="2"><rect width="118" height="29" rx="3" stroke="none"/><rect x="1" y="1" width="116" height="27" rx="2" fill="none"/></g><text transform="translate(31 21)" fill="#fff" font-size="18" font-family="ProximaNova-Semibold, Proxima Nova" font-weight="600"><tspan x="0" y="0">Download</tspan></text></g><g transform="translate(629 222)"><g transform="translate(13)" fill="#4e8547" stroke="#4e8547" stroke-width="2"><rect width="118" height="29" rx="3" stroke="none"/><rect x="1" y="1" width="116" height="27" rx="2" fill="none"/></g><text transform="translate(41 21)" fill="#fff" font-size="18" font-family="ProximaNova-Semibold, Proxima Nova" font-weight="600"><tspan x="0" y="0">Sign-up</tspan></text></g><g transform="translate(763 222)"><g transform="translate(13)" fill="#4e8547" stroke="#4e8547" stroke-width="2"><rect width="118" height="29" rx="3" stroke="none"/><rect x="1" y="1" width="116" height="27" rx="2" fill="none"/></g><text transform="translate(23 21)" fill="#fff" font-size="18" font-family="ProximaNova-Semibold, Proxima Nova" font-weight="600"><tspan x="0" y="0">Do activities</tspan></text></g><g transform="translate(897 222)"><g transform="translate(13)" fill="#4e8547" stroke="#4e8547" stroke-width="2"><rect width="118" height="29" rx="3" stroke="none"/><rect x="1" y="1" width="116" height="27" rx="2" fill="none"/></g><text transform="translate(23 21)" fill="#fff" font-size="18" font-family="ProximaNova-Semibold, Proxima Nova" font-weight="600"><tspan x="0" y="0">Earn points</tspan></text></g><g transform="translate(1031 187)"><g transform="translate(13)" fill="none" stroke="#86bbd8" stroke-width="3"><rect width="181" height="110" rx="3" stroke="none"/><rect x="1.5" y="1.5" width="178" height="107" rx="1.5" fill="none"/></g><text transform="translate(21 39)" font-size="18" font-family="ProximaNova-Semibold, Proxima Nova" font-weight="600"><tspan x="0" y="0">Make Sustainable </tspan><tspan x="0" y="22">practices more easy </tspan><tspan x="0" y="44">and interesting</tspan></text></g><g transform="translate(-36 -31)"><path d="M0,0C24,0,0,31.5,24,31.5" transform="translate(220 207)" fill="none" stroke="#000" stroke-width="2" stroke-dasharray="0 0"/><path d="M0,0,5.6,4.655a1.1,1.1,0,0,1,0,1.69L0,11" transform="translate(237.5 233)" fill="none" stroke="#000" stroke-linecap="round" stroke-width="2"/></g><g transform="translate(-36 -31)"><path d="M0,0C48,0,0,29,48,29" transform="translate(362 238.5)" fill="none" stroke="#000" stroke-width="2" stroke-dasharray="0 0"/><path d="M0,0,5.6,4.655a1.1,1.1,0,0,1,0,1.69L0,11" transform="translate(403.5 262)" fill="none" stroke="#000" stroke-linecap="round" stroke-width="2"/></g><g transform="translate(-36 -31)"><path d="M0,0H16" transform="translate(528 267.5)" fill="none" stroke="#000" stroke-width="2" stroke-dasharray="0 0"/><path d="M0,0,5.6,4.655a1.1,1.1,0,0,1,0,1.69L0,11" transform="translate(537.5 262)" fill="none" stroke="#000" stroke-linecap="round" stroke-width="2"/></g><g transform="translate(-36 -31)"><path d="M0,0H16" transform="translate(662 267.5)" fill="none" stroke="#000" stroke-width="2" stroke-dasharray="0 0"/><path d="M0,0,5.6,4.655a1.1,1.1,0,0,1,0,1.69L0,11" transform="translate(671.5 262)" fill="none" stroke="#000" stroke-linecap="round" stroke-width="2"/></g><g transform="translate(-36 -31)"><path d="M0,0H16" transform="translate(796 267.5)" fill="none" stroke="#000" stroke-width="2" stroke-dasharray="0 0"/><path d="M0,0,5.6,4.655a1.1,1.1,0,0,1,0,1.69L0,11" transform="translate(805.5 262)" fill="none" stroke="#000" stroke-linecap="round" stroke-width="2"/></g><g transform="translate(-36 -31)"><path d="M0,0H16" transform="translate(930 267.5)" fill="none" stroke="#000" stroke-width="2" stroke-dasharray="0 0"/><path d="M0,0,5.6,4.655a1.1,1.1,0,0,1,0,1.69L0,11" transform="translate(939.5 262)" fill="none" stroke="#000" stroke-linecap="round" stroke-width="2"/></g><g transform="translate(-36 -31)"><path d="M0,14C16,14,0,0,16,0" transform="translate(228 318.5)" fill="none" stroke="#000" stroke-width="2" stroke-dasharray="0 0"/><path d="M0,0,5.6,4.655a1.1,1.1,0,0,1,0,1.69L0,11" transform="translate(237.5 313)" fill="none" stroke="#000" stroke-linecap="round" stroke-width="2"/></g><g transform="translate(-36 -31)"><path d="M0,0C0,20,88,0,88,20" transform="translate(303 333)" fill="none" stroke="#000" stroke-width="2" stroke-dasharray="0 0"/><path d="M11,0,6.345,5.6a1.1,1.1,0,0,1-1.69,0L0,0" transform="translate(385.5 346.5)" fill="none" stroke="#000" stroke-linecap="round" stroke-width="2"/></g><g transform="translate(-36 -31)"><path d="M0,71C0,0,78,71,78,0" transform="translate(391 282)" fill="none" stroke="#000" stroke-width="2" stroke-dasharray="0 0"/><path d="M11,6,6.345.4a1.1,1.1,0,0,0-1.69,0L0,6" transform="translate(463.5 282.5)" fill="none" stroke="#000" stroke-linecap="round" stroke-width="2"/></g><g transform="translate(-36 -31)"><path d="M0,0C16,0,0,5.5,16,5.5" transform="translate(1064 267.5)" fill="none" stroke="#000" stroke-width="2" stroke-dasharray="0 0"/><path d="M0,0,5.6,4.655a1.1,1.1,0,0,1,0,1.69L0,11" transform="translate(1073.5 267.5)" fill="none" stroke="#000" stroke-linecap="round" stroke-width="2"/></g><g transform="translate(1031 -188)"><g transform="translate(36 501)"><g fill="#fff" stroke="#e6b67a" stroke-width="1"><rect width="160" height="87" rx="5" stroke="none"/><rect x="0.5" y="0.5" width="159" height="86" rx="4.5" fill="none"/></g><g transform="translate(14.08 29)"><text font-size="18" font-family="ProximaNova-Semibold, Proxima Nova" font-weight="600"><tspan x="0" y="17">Keep users </tspan><tspan x="0" y="39">interested</tspan></text></g></g><g transform="translate(37 501)"><path d="M5.979,0H153.06c3.3,0,5.979,2.239,5.979,5V29H0V5C0,2.239,2.677,0,5.979,0Z" transform="translate(0)" fill="#e0a458" opacity="0.796"/><text transform="translate(53.338 19)" fill="#fff" font-size="13" font-family="ProximaNova-Semibold, Proxima Nova" font-weight="600"><tspan x="0" y="0">HMW…</tspan></text></g></g><g transform="translate(1031 -85)"><g transform="translate(36 501)"><g fill="#fff" stroke="#e6b67a" stroke-width="1"><rect width="160" height="145" rx="5" stroke="none"/><rect x="0.5" y="0.5" width="159" height="144" rx="4.5" fill="none"/></g><g transform="translate(6.08 35)"><text font-size="18" font-family="ProximaNova-Semibold, Proxima Nova" font-weight="600"><tspan x="0" y="17">Present </tspan><tspan x="0" y="39">challenges that </tspan><tspan x="0" y="61">users would want </tspan><tspan x="0" y="83">to do</tspan></text></g></g><g transform="translate(37 501)"><path d="M5.979,0H153.06c3.3,0,5.979,2.239,5.979,5V29H0V5C0,2.239,2.677,0,5.979,0Z" transform="translate(0)" fill="#e0a458" opacity="0.796"/><text transform="translate(53.338 19)" fill="#fff" font-size="13" font-family="ProximaNova-Semibold, Proxima Nova" font-weight="600"><tspan x="0" y="0">HMW…</tspan></text></g></g><g transform="translate(1032 76)"><g transform="translate(36 501)"><g fill="#fff" stroke="#e6b67a" stroke-width="1"><rect width="159" height="120" rx="5" stroke="none"/><rect x="0.5" y="0.5" width="158" height="119" rx="4.5" fill="none"/></g><g transform="translate(14.08 37)"><text font-size="18" font-family="ProximaNova-Semibold, Proxima Nova" font-weight="600"><tspan x="0" y="17">Make users </tspan><tspan x="0" y="39">motivated to </tspan><tspan x="0" y="61">record</tspan></text></g></g><g transform="translate(37 501)"><path d="M5.941,0H152.1c3.281,0,5.941,2.239,5.941,5V29H0V5C0,2.239,2.66,0,5.941,0Z" transform="translate(0)" fill="#e0a458" opacity="0.796"/><text transform="translate(52.887 19)" fill="#fff" font-size="13" font-family="ProximaNova-Semibold, Proxima Nova" font-weight="600"><tspan x="0" y="0">HMW…</tspan></text></g></g><text transform="translate(400 446)" font-size="18" font-family="ProximaNova-Bold, Proxima Nova" font-weight="700"><tspan x="0" y="0">End Goal:</tspan><tspan y="0" xml:space="preserve" font-family="ProximaNova-Semibold, Proxima Nova" font-weight="600"> Users get points by completing sustainable practices </tspan><tspan font-family="ProximaNova-Semibold, Proxima Nova" font-weight="600"><tspan x="0" y="22">using gamification features.</tspan></tspan></text><text transform="translate(400 504)" font-size="18" font-family="ProximaNova-Bold, Proxima Nova" font-weight="700"><tspan x="0" y="17">Problem: </tspan><tspan y="17" font-family="ProximaNova-Semibold, Proxima Nova" font-weight="600">How might we encourage users to learn more about </tspan><tspan x="0" y="39" font-family="ProximaNova-Semibold, Proxima Nova" font-weight="600">sustainability in a fun and engaging way?</tspan></text></g></svg>