<svg xmlns="http://www.w3.org/2000/svg" xmlns:xlink="http://www.w3.org/1999/xlink" width="1281" height="782" viewBox="0 0 1281 782"><defs><clipPath id="b"><rect width="1281" height="782"/></clipPath></defs><g id="a" clip-path="url(#b)"><rect width="1281" height="782" fill="#fff"/><g transform="translate(28 300)"><g transform="translate(13 -7)" fill="none" stroke="#86bbd8" stroke-width="2"><rect width="148" height="36" rx="3" stroke="none"/><rect x="1" y="1" width="146" height="34" rx="2" fill="none"/></g><text transform="translate(19 19)" font-size="24" font-family="ProximaNova-Semibold, Proxima Nova" font-weight="600"><tspan x="0" y="0">Leaderboard</tspan></text></g><g transform="translate(52 386)"><g transform="translate(13 -7)" fill="none" stroke="#e0a458" stroke-width="2"><rect width="101" height="68" rx="3" stroke="none"/><rect x="1" y="1" width="99" height="66" rx="2" fill="none"/></g><text transform="translate(28 3)" font-size="18" font-family="ProximaNova-Semibold, Proxima Nova" font-weight="600"><tspan x="0" y="17">View </tspan><tspan x="0" y="39">Leaders</tspan></text></g><g transform="translate(378 386)"><g transform="translate(13 -7)" fill="none" stroke="#e0a458" stroke-width="2"><rect width="101" height="68" rx="3" stroke="none"/><rect x="1" y="1" width="99" height="66" rx="2" fill="none"/></g><text transform="translate(28 3)" font-size="18" font-family="ProximaNova-Semibold, Proxima Nova" font-weight="600"><tspan x="0" y="17">Add </tspan><tspan x="0" y="39">Friends</tspan></text></g><g transform="translate(535 386)"><g transform="translate(13 -7)" fill="none" stroke="#e0a458" stroke-width="2"><rect width="122" height="68" rx="3" stroke="none"/><rect x="1" y="1" width="120" height="66" rx="2" fill="none"/></g><text transform="translate(29 3)" font-size="18" font-family="ProximaNova-Semibold, Proxima Nova" font-weight="600"><tspan x="0" y="17">Select </tspan><tspan x="0" y="39">Challenge</tspan></text></g><g transform="translate(1019 473)"><g transform="translate(13 -7)" fill="none" stroke="#e0a458" stroke-width="2"><rect width="139" height="68" rx="3" stroke="none"/><rect x="1" y="1" width="137" height="66" rx="2" fill="none"/></g><text transform="translate(29 3)" font-size="18" font-family="ProximaNova-Semibold, Proxima Nova" font-weight="600"><tspan x="0" y="17">Add image </tspan><tspan x="0" y="39">and comment</tspan></text></g><g transform="translate(1088 582)"><g transform="translate(13 -7)" fill="none" stroke="#e0a458" stroke-width="2"><rect width="139" height="68" rx="3" stroke="none"/><rect x="1" y="1" width="137" height="66" rx="2" fill="none"/></g><text transform="translate(29 3)" font-size="18" font-family="ProximaNova-Semibold, Proxima Nova" font-weight="600"><tspan x="0" y="17">Submit and </tspan><tspan x="0" y="39">share</tspan></text></g><g transform="translate(1027 399)"><g transform="translate(13 -7)" fill="none" stroke="#e0a458" stroke-width="2"><rect width="122" height="42" rx="3" stroke="none"/><rect x="1" y="1" width="120" height="40" rx="2" fill="none"/></g><text transform="translate(34 20)" font-size="18" font-family="ProximaNova-Semibold, Proxima Nova" font-weight="600"><tspan x="0" y="0">Input data</tspan></text></g><g transform="translate(700 398)"><g transform="translate(13 -7)" fill="none" stroke="#e0a458" stroke-width="2"><rect width="67" height="45" rx="3" stroke="none"/><rect x="1" y="1" width="65" height="43" rx="2" fill="none"/></g><text transform="translate(29 20)" font-size="18" font-family="ProximaNova-Semibold, Proxima Nova" font-weight="600"><tspan x="0" y="0">Like</tspan></text></g><g transform="translate(775 398)"><g transform="translate(13 -7)" fill="none" stroke="#e0a458" stroke-width="2"><rect width="118" height="45" rx="3" stroke="none"/><rect x="1" y="1" width="116" height="43" rx="2" fill="none"/></g><text transform="translate(33 22)" font-size="18" font-family="ProximaNova-Semibold, Proxima Nova" font-weight="600"><tspan x="0" y="0">Comment</tspan></text></g><g transform="translate(901 398)"><g transform="translate(13 -7)" fill="none" stroke="#e0a458" stroke-width="2"><rect width="93" height="45" rx="3" stroke="none"/><rect x="1" y="1" width="91" height="43" rx="2" fill="none"/></g><text transform="translate(36 22)" font-size="18" font-family="ProximaNova-Semibold, Proxima Nova" font-weight="600"><tspan x="0" y="0">Share</tspan></text></g><g transform="translate(948 593)"><g transform="translate(13 -7)" fill="none" stroke="#e0a458" stroke-width="2"><rect width="93" height="45" rx="3" stroke="none"/><rect x="1" y="1" width="91" height="43" rx="2" fill="none"/></g><text transform="translate(32 22)" font-size="18" font-family="ProximaNova-Semibold, Proxima Nova" font-weight="600"><tspan x="0" y="0">Submit</tspan></text></g><g transform="translate(186 386)"><g transform="translate(13 -7)" fill="none" stroke="#e0a458" stroke-width="2"><rect width="175" height="68" rx="3" stroke="none"/><rect x="1" y="1" width="173" height="66" rx="2" fill="none"/></g><text transform="translate(30 1)" font-size="18" font-family="ProximaNova-Semibold, Proxima Nova" font-weight="600"><tspan x="0" y="17">View </tspan><tspan x="0" y="39">Accomplishments</tspan></text></g><g transform="translate(467 174)"><g transform="translate(13 -34)" fill="none" stroke="#4e8547" stroke-width="2"><rect width="258" height="63" rx="3" stroke="none"/><rect x="1" y="1" width="256" height="61" rx="2" fill="none"/></g><text transform="translate(45 7)" font-size="32" font-family="ProximaNova-Semibold, Proxima Nova" font-weight="600"><tspan x="0" y="0">Home Screen</tspan></text></g><g transform="translate(278 300)"><g transform="translate(13 -7)" fill="none" stroke="#86bbd8" stroke-width="2"><rect width="148" height="36" rx="3" stroke="none"/><rect x="1" y="1" width="146" height="34" rx="2" fill="none"/></g><text transform="translate(53 19)" font-size="24" font-family="ProximaNova-Semibold, Proxima Nova" font-weight="600"><tspan x="0" y="0">Profile</tspan></text></g><g transform="translate(522 300)"><g transform="translate(13 -7)" fill="none" stroke="#86bbd8" stroke-width="2"><rect width="148" height="36" rx="3" stroke="none"/><rect x="1" y="1" width="146" height="34" rx="2" fill="none"/></g><text transform="translate(27 19)" font-size="24" font-family="ProximaNova-Semibold, Proxima Nova" font-weight="600"><tspan x="0" y="0">Challenges</tspan></text></g><g transform="translate(760 300)"><g transform="translate(13 -7)" fill="none" stroke="#86bbd8" stroke-width="2"><rect width="148" height="36" rx="3" stroke="none"/><rect x="1" y="1" width="146" height="34" rx="2" fill="none"/></g><text transform="translate(60 19)" font-size="24" font-family="ProximaNova-Semibold, Proxima Nova" font-weight="600"><tspan x="0" y="0">Feed</tspan></text></g><g transform="translate(-11 81)"><g transform="translate(1039 212)" fill="none" stroke="#86bbd8" stroke-width="2"><rect width="148" height="36" rx="3" stroke="none"/><rect x="1" y="1" width="146" height="34" rx="2" fill="none"/></g><text transform="translate(1075 238)" font-size="24" font-family="ProximaNova-Semibold, Proxima Nova" font-weight="600"><tspan x="0" y="0">Record</tspan></text></g><g transform="translate(609 209) rotate(90)"><path d="M.5,1.5H40.91" transform="translate(-0.5 -1.5)" fill="none" stroke="#454d58" stroke-linecap="square" stroke-miterlimit="10" stroke-width="1.5"/></g><g transform="translate(365 250) rotate(90)"><path d="M.5,1.5H40.91" transform="translate(-0.5 -1.5)" fill="none" stroke="#454d58" stroke-linecap="square" stroke-miterlimit="10" stroke-width="1.5"/></g><g transform="translate(609 250) rotate(90)"><path d="M.5,1.5H40.91" transform="translate(-0.5 -1.5)" fill="none" stroke="#454d58" stroke-linecap="square" stroke-miterlimit="10" stroke-width="1.5"/></g><g transform="translate(847 250) rotate(90)"><path d="M.5,1.5H40.91" transform="translate(-0.5 -1.5)" fill="none" stroke="#454d58" stroke-linecap="square" stroke-miterlimit="10" stroke-width="1.5"/></g><g transform="translate(847 329) rotate(90)"><path d="M.5,1.5h37" transform="translate(-0.5 -1.5)" fill="none" stroke="#454d58" stroke-linecap="square" stroke-miterlimit="10" stroke-width="1.5"/></g><g transform="translate(365 329) rotate(90)"><path d="M.5,1.5h37" transform="translate(-0.5 -1.5)" fill="none" stroke="#454d58" stroke-linecap="square" stroke-miterlimit="10" stroke-width="1.5"/></g><g transform="translate(1102 250) rotate(90)"><path d="M.5,1.5H40.91" transform="translate(-0.5 -1.5)" fill="none" stroke="#454d58" stroke-linecap="square" stroke-miterlimit="10" stroke-width="1.5"/></g><g transform="translate(746 366) rotate(90)"><path d="M.5,1.5H23.759" transform="translate(-0.5 -1.5)" fill="none" stroke="#454d58" stroke-linecap="square" stroke-miterlimit="10" stroke-width="1.5"/></g><g transform="translate(289 366) rotate(90)"><path d="M.5,1.5H11.576" transform="translate(-0.5 -1.5)" fill="none" stroke="#454d58" stroke-linecap="square" stroke-miterlimit="10" stroke-width="1.5"/></g><g transform="translate(847 367) rotate(90)"><path d="M.5,1.5H23.759" transform="translate(-0.5 -1.5)" fill="none" stroke="#454d58" stroke-linecap="square" stroke-miterlimit="10" stroke-width="1.5"/></g><g transform="translate(961 366) rotate(90)"><path d="M.5,1.5H23.759" transform="translate(-0.5 -1.5)" fill="none" stroke="#454d58" stroke-linecap="square" stroke-miterlimit="10" stroke-width="1.5"/></g><g transform="translate(441 366) rotate(90)"><path d="M.5,1.5H12.177" transform="translate(-0.5 -1.5)" fill="none" stroke="#454d58" stroke-linecap="square" stroke-miterlimit="10" stroke-width="1.5"/></g><g transform="translate(1102 534) rotate(90)"><path d="M.5,1.5H27.022" transform="translate(-0.5 -1.5)" fill="none" stroke="#454d58" stroke-linecap="square" stroke-miterlimit="10" stroke-width="1.5"/></g><g transform="translate(1007 563) rotate(90)"><path d="M.5,1.5H20.026" transform="translate(-0.5 -1.5)" fill="none" stroke="#454d58" stroke-linecap="square" stroke-miterlimit="10" stroke-width="1.5"/></g><g transform="translate(1160 563) rotate(90)"><path d="M.5,1.5h9.763" transform="translate(-0.5 -1.5)" fill="none" stroke="#454d58" stroke-linecap="square" stroke-miterlimit="10" stroke-width="1.5"/></g><g transform="translate(1102 329) rotate(90)"><path d="M.5,1.5H57.2" transform="translate(-0.5 -1.5)" fill="none" stroke="#454d58" stroke-linecap="square" stroke-miterlimit="10" stroke-width="1.5"/></g><g transform="translate(116 329) rotate(90)"><path d="M.5,1.5H48.576" transform="translate(-0.5 -1.5)" fill="none" stroke="#454d58" stroke-linecap="square" stroke-miterlimit="10" stroke-width="1.5"/></g><g transform="translate(609 329) rotate(90)"><path d="M.5,1.5H49.13" transform="translate(-0.5 -1.5)" fill="none" stroke="#454d58" stroke-linecap="square" stroke-miterlimit="10" stroke-width="1.5"/></g><g transform="translate(115 250) rotate(90)"><path d="M.5,1.5H40.91" transform="translate(-0.5 -1.5)" fill="none" stroke="#454d58" stroke-linecap="square" stroke-miterlimit="10" stroke-width="1.5"/></g><g transform="translate(115.5 250)"><path d="M.5,1.5H987" transform="translate(-0.5 -1.5)" fill="none" stroke="#454d58" stroke-linecap="square" stroke-miterlimit="10" stroke-width="1.5"/></g><g transform="translate(1007.5 563)"><path d="M.5,1.5H153.017" transform="translate(-0.5 -1.5)" fill="none" stroke="#454d58" stroke-linecap="square" stroke-miterlimit="10" stroke-width="1.5"/></g><g transform="translate(746.5 366)"><path d="M.5,1.5h214" transform="translate(-0.5 -1.5)" fill="none" stroke="#454d58" stroke-linecap="square" stroke-miterlimit="10" stroke-width="1.5"/></g><g transform="translate(290 366)"><path d="M.5,1.5H151" transform="translate(-0.5 -1.5)" fill="none" stroke="#454d58" stroke-linecap="square" stroke-miterlimit="10" stroke-width="1.5"/></g></g></svg>