<svg xmlns="http://www.w3.org/2000/svg" xmlns:xlink="http://www.w3.org/1999/xlink" viewBox="0 0 1104.14 1066.14" xmlns:v="https://vecta.io/nano"><style><![CDATA[.W,.E{letter-spacing:-0.01em}.F{letter-spacing:-0.01em}.G{letter-spacing:0em}.c{stroke:#6f7a33}.d{stroke-width:3}.e{stroke-miterlimit:10}.f{fill:#6f7a33}.g{font-size:36px}.h{font-family:MyriadPro-Regular,Myriad Pro}.i{stroke-linejoin:round}.j{stroke-linecap:round}.k{stroke:#9caf3b}.l{fill:#79b473}]]></style><defs><linearGradient id="A" x1="682.55" y1="591.6" x2="682.55" y2="318.94" gradientUnits="userSpaceOnUse"><stop offset="0" stop-color="#8d9f3a"/><stop offset="1" stop-color="#b2c737"/></linearGradient><linearGradient id="B" x1="962.04" x2="962.04" xlink:href="#A"/><path id="C" d="M612.26 165.12l38.97 61.45 38.24-61.45"/></defs><g class="c d"><path d="M285.03 233.46H87.14L186.1 33.82l98.94 199.64z" fill="none" class="i"/><g class="e"><path d="M229.32 194.84c0 20.46-19.35 37-43.23 37s-43.24-16.58-43.24-37S186.1 65.2 186.1 65.2s43.23 109.18 43.23 129.63z" fill="#fff"/><path d="M186.1 230.55V90.53m19.7 77.77l-19.17 30.46m-1.37-40.3L168.4 127.7m18.22-13.04l8.58-14.63" fill="#231f20" class="j"/></g></g><text class="E f g h" transform="translate(132.32 266.51)">g<tspan class="F" x="19.91" y="0">r</tspan><tspan class="G" x="31.32" y="0">eener</tspan></text><g class="c d"><path d="M523.83 234.83h-197.9L424.9 35.2l98.94 199.64z" class="f i"/><g class="e"><path d="M468.12 196.2c0 20.45-19.36 37-43.24 37s-43.23-16.58-43.23-37 43.23-129.64 43.23-129.64 43.24 109.2 43.24 129.64z" fill="#fff"/><path d="M424.88 231.92V91.9m19.7 77.77l-19.17 30.46m-1.35-40.3l-16.85-30.78m18.2-13.03l8.6-14.63" fill="#231f20" class="j"/></g></g><text class="E f g h" transform="translate(371.12 267.87)">g<tspan class="F" x="19.91" y="0">r</tspan><tspan class="G" x="31.32" y="0">eener</tspan></text><g class="c d"><path d="M750.03 236.2h-197.9L651.1 36.56l98.93 199.65z" class="f i"/><path d="M694.33 197.6c0 20.45-19.36 37-43.24 37s-43.24-16.58-43.24-37S651.1 68 651.1 68s43.24 109.14 43.24 129.6z" fill="#fff" class="e"/></g><text class="E f g h" transform="translate(597.33 269.25)">g<tspan class="F" x="19.91" y="0">r</tspan><tspan class="G" x="31.32" y="0">eener</tspan></text><g fill="none" class="c d e j"><use xlink:href="#C"/><use xlink:href="#C" y="-20.67"/><use xlink:href="#C" y="-41.67"/><path d="M617.45 111.93l33.73 53.2 33.1-53.2"/></g><path d="M983.95 237.2h-197.9L885 37.56l98.94 199.64z" class="c d f i"/><path d="M928.24 198.6c0 20.45-19.36 37-43.24 37s-43.23-16.58-43.23-37S885 69 885 69s43.24 109.14 43.24 129.6z" fill="#fff" class="c d e"/><text class="E f g h" transform="translate(831.24 270.25)">g<tspan class="F" x="19.91" y="0">r</tspan><tspan class="G" x="31.32" y="0">eener</tspan></text><path d="M842.64 169.67l42.53 67.07 41.74-67.07m-68.16-14.6l26.5 41.78 26-41.78M867.2 137.3l17.73 27.95 17.4-27.95m-28.76-15.62l11.54 18.2 11.32-18.2" fill="none" class="c d e j"/><path d="M246.1 518.54H48.2l98.95-199.64 98.94 199.64z" class="c d f i"/><g class="e c d"><path d="M161.66 410.6c0 6.87-6.5 12.43-14.5 12.43s-14.5-5.56-14.5-12.43 14.5-43.5 14.5-43.5 14.5 36.63 14.5 43.5z" fill="#b2c737"/><path d="M161.66 447.08c0-6.86-6.5-12.43-14.5-12.43s-14.5 5.57-14.5 12.43 14.5 43.5 14.5 43.5 14.5-36.64 14.5-43.5z" fill="#839626"/><g fill="#a2b631"><path d="M159.58 414.83c-6.86 0-12.43 6.5-12.43 14.5s5.57 14.5 12.43 14.5 43.5-14.5 43.5-14.5-36.64-14.5-43.5-14.5z"/><path d="M134.73 443.84c6.86 0 12.42-6.5 12.42-14.5s-5.56-14.5-12.42-14.5-43.5 14.5-43.5 14.5 36.64 14.5 43.5 14.5z"/></g></g><text class="E f g h" transform="translate(93.39 551.58)">g<tspan class="F" x="19.91" y="0">r</tspan><tspan class="G" x="31.32" y="0">eener</tspan></text><path d="M538.96 585.87H322.12L430.55 367.1l108.4 218.76z" fill="#8d9f3a" class="e k"/><path d="M511.5 502.02H349.6l80.95-163.33 80.95 163.33z" fill="#a2b631"/><g stroke="#b2c737" class="e"><path d="M485.4 423.9H375.68l54.86-110.68L485.4 423.9z" fill="#b2c737"/><path d="M790.98 591.6l-41.56-83.84h14.1l-38.73-78.13h12.63l-54.86-110.7-54.85 110.7h12.62l-38.72 78.13h14.08l-41.55 83.84h216.85z" fill="url(#A)"/><path d="M1070.46 591.6l-41.56-83.84h14.1l-38.72-78.13h12.62l-54.86-110.7-54.85 110.7h12.62l-38.72 78.13h14.1L853.6 591.6h216.85z" fill="url(#B)"/></g><path d="M984.44 491.66c0 9.5-9 17.2-20.08 17.2s-20.08-7.7-20.08-17.2 20.08-60.2 20.08-60.2 20.08 50.7 20.08 60.2z" class="f"/><g class="e"><path d="M964.36 461.25V611.5" fill="none" stroke="#645455" stroke-width="4" class="j"/><path d="M792.7 915.26H575.86L684.28 696.5 792.7 915.26z" fill="#4e8547" class="k"/></g><path d="M765.23 831.4h-161.9l80.95-163.33 80.95 163.33z" class="l"/><path d="M739.14 753.28H629.42l54.86-110.68 54.86 110.68z" fill="#9ac695"/><text class="W g h l" transform="translate(625.69 997.86)">g<tspan class="F" x="19.91" y="0">r</tspan><tspan class="G" x="31.32" y="0">eener</tspan></text><rect x="669.38" y="740.43" width="29.8" height="40.4" rx="6.99" fill="#9ac695"/><rect x="666.22" y="811.48" width="36.12" height="48.97" rx="6.99" class="l"/><rect x="660.53" y="891.11" width="47.49" height="64.39" rx="6.99" fill="#4e8547"/><path d="M532.48 918.47H315.63L424.06 699.7l108.42 218.76z" fill="#8c9f3a" class="e k"/><path d="M505 834.62H343.1l80.96-163.34L505 834.62z" fill="#a3b73a"/><path d="M478.9 756.5H369.2l54.86-110.68L478.9 756.5z" fill="#b2c736"/><text class="E f g h" transform="translate(365.47 1001.06)">g<tspan class="F" x="19.91" y="0">r</tspan><tspan class="G" x="31.32" y="0">eener</tspan></text><rect x="409.16" y="743.64" width="29.8" height="40.4" rx="6.99" fill="#b2c736"/><rect x="406" y="814.69" width="36.12" height="48.97" rx="6.99" fill="#a3b73a"/><rect x="400.31" y="894.32" width="47.49" height="64.39" rx="6.99" fill="#8c9f3a"/></svg>