<svg xmlns="http://www.w3.org/2000/svg" xmlns:xlink="http://www.w3.org/1999/xlink" width="1378" height="784" viewBox="0 0 1378 784"><defs><style>.a{fill:#eef5fc;}.b{clip-path:url(#d);}.c{clip-path:url(#a);}.d{fill:#dff0f7;}.e,.n,.p,.s{font-size:13px;}.e,.j,.o,.p,.s,.t,.u,.y{font-family:ProximaNova-Regular, Proxima Nova;}.f{fill:#454d58;stroke-width:2px;}.f,.g,.h{stroke:#454d58;}.f,.h{stroke-miterlimit:10;}.aa,.g,.h,.r{fill:none;}.g{stroke-linecap:round;}.h{stroke-linecap:square;stroke-width:1.5px;}.i{fill:#1c5d99;}.ab,.j,.k,.n,.p,.q,.t,.u,.x{fill:#fff;}.j{font-size:16px;}.k{stroke:#e55934;}.l,.o{fill:#575757;font-size:10px;}.l,.n{font-family:Poppins-Regular, Poppins;}.m{fill:#e55934;opacity:0.796;}.q,.r{stroke:#333;}.s{fill:#333;}.t{font-size:15px;}.u{font-size:17px;}.v,.w{fill:#b0e298;}.w{stroke:#b0e298;}.x{stroke:#707070;}.y{font-size:24px;}.z{stroke:none;}</style><clipPath id="a"><rect class="a" width="89" height="47" rx="23"/></clipPath><clipPath id="d"><rect width="1378" height="784"/></clipPath></defs><g id="c" class="b"><rect class="ab" width="1378" height="784"/><g transform="translate(338 299)"><g class="c"><rect class="d" width="89" height="47" rx="23"/><text class="e" transform="translate(29 28)"><tspan x="0" y="0">Start</tspan></text></g></g><g transform="translate(1201 302)"><g class="c"><rect class="d" width="89" height="47" rx="23"/><text class="e" transform="translate(29 28)"><tspan x="0" y="0">End</tspan></text></g></g><g transform="translate(388.5 257.456)"><circle class="f" cx="1.75" cy="1.75" r="1.75" transform="translate(38.5 65.485)"/><path class="g" d="M9.284.1,6.551,2.352l-1.143.941a1.113,1.113,0,0,1-.709.221,1.166,1.166,0,0,1-.717-.237L0,0" transform="matrix(-0.035, -0.999, 0.999, -0.035, 86.146, 71)"/><path class="g" d="M9.284.1,6.551,2.352l-1.143.941a1.113,1.113,0,0,1-.709.221,1.166,1.166,0,0,1-.717-.237L0,0" transform="matrix(-0.035, -0.999, 0.999, -0.035, 86.146, 71)"/><path class="h" d="M.5,1.5H46.11" transform="translate(42.5 65.106)"/><g transform="translate(43 66.606)"><path class="h" d="M.5,1.5H46.11" transform="translate(-0.5 -1.5)"/></g></g><g transform="translate(537.5 258.456)"><circle class="f" cx="1.75" cy="1.75" r="1.75" transform="translate(38.5 63.5)"/><path class="g" d="M6.341,0,4.449,2.278l-.791.953a.633.633,0,0,1-.974,0L0,0" transform="matrix(-0.035, -0.999, 0.999, -0.035, 118.544, 68)"/><path class="g" d="M6.341,0,4.449,2.278l-.791.953a.633.633,0,0,1-.974,0L0,0" transform="matrix(-0.035, -0.999, 0.999, -0.035, 118.544, 68)"/><path class="h" d="M.5,1.5H78.508" transform="translate(42.5 63.5)"/><g transform="translate(43 65)"><path class="h" d="M.5,1.5H78.508" transform="translate(-0.5 -1.5)"/></g></g><g transform="translate(708.5 257.456)"><circle class="f" cx="1.75" cy="1.75" r="1.75" transform="translate(38.5 63.5)"/><path class="g" d="M6.341,0,4.449,2.278l-.791.953a.633.633,0,0,1-.974,0L0,0" transform="matrix(-0.035, -0.999, 0.999, -0.035, 118.544, 68)"/><path class="g" d="M6.341,0,4.449,2.278l-.791.953a.633.633,0,0,1-.974,0L0,0" transform="matrix(-0.035, -0.999, 0.999, -0.035, 118.544, 68)"/><path class="h" d="M.5,1.5H78.508" transform="translate(42.5 63.5)"/><g transform="translate(43 65)"><path class="h" d="M.5,1.5H78.508" transform="translate(-0.5 -1.5)"/></g></g><g transform="translate(883.5 258.456)"><circle class="f" cx="1.75" cy="1.75" r="1.75" transform="translate(38.5 63.5)"/><path class="g" d="M6.341,0,4.449,2.278l-.791.953a.633.633,0,0,1-.974,0L0,0" transform="matrix(-0.035, -0.999, 0.999, -0.035, 118.544, 68)"/><path class="g" d="M6.341,0,4.449,2.278l-.791.953a.633.633,0,0,1-.974,0L0,0" transform="matrix(-0.035, -0.999, 0.999, -0.035, 118.544, 68)"/><path class="h" d="M.5,1.5H78.508" transform="translate(42.5 63.5)"/><g transform="translate(43 65)"><path class="h" d="M.5,1.5H78.508" transform="translate(-0.5 -1.5)"/></g></g><g transform="translate(1078.5 258.456)"><circle class="f" cx="1.75" cy="1.75" r="1.75" transform="translate(38.5 63.5)"/><path class="g" d="M6.341,0,4.449,2.278l-.791.953a.633.633,0,0,1-.974,0L0,0" transform="matrix(-0.035, -0.999, 0.999, -0.035, 118.544, 68)"/><path class="g" d="M6.341,0,4.449,2.278l-.791.953a.633.633,0,0,1-.974,0L0,0" transform="matrix(-0.035, -0.999, 0.999, -0.035, 118.544, 68)"/><path class="h" d="M.5,1.5H78.508" transform="translate(42.5 63.5)"/><g transform="translate(43 65)"><path class="h" d="M.5,1.5H78.508" transform="translate(-0.5 -1.5)"/></g></g><g transform="translate(478 295)"><rect class="i" width="116" height="61"/><text class="j" transform="translate(17 27)"><tspan x="0" y="0">Scheduling</tspan><tspan x="0" y="17">Screen</tspan></text></g><g transform="translate(615 -124)"><g transform="translate(36 501)"><g class="k"><rect class="z" width="134" height="145" rx="5"/><rect class="aa" x="0.5" y="0.5" width="133" height="144" rx="4.5"/></g><text class="l" transform="translate(14.08 35)"><tspan x="0" y="11">As a user I would like </tspan><tspan x="0" y="27">to see the most </tspan><tspan x="0" y="43">updated times </tspan><tspan x="0" y="59">available for a </tspan><tspan x="0" y="75">service</tspan></text></g><g transform="translate(36.957 501)"><path class="m" d="M5,0H128a5,5,0,0,1,5,5V29H0V5A5,5,0,0,1,5,0Z" transform="translate(0.043)"/><text class="n" transform="translate(33.615 19)"><tspan x="0" y="0">User Story</tspan></text></g></g><g transform="translate(964 -124)"><g transform="translate(36 501)"><g class="k"><rect class="z" width="134" height="106" rx="5"/><rect class="aa" x="0.5" y="0.5" width="133" height="105" rx="4.5"/></g><text class="o" transform="translate(14.08 35)"><tspan x="0" y="9">As a user I’d like to have </tspan><tspan x="0" y="21">the option to </tspan><tspan x="0" y="33">reschedule or cancel </tspan><tspan x="0" y="45">my appointment</tspan></text></g><g transform="translate(36.957 501)"><path class="m" d="M5,0H128a5,5,0,0,1,5,5V29H0V5A5,5,0,0,1,5,0Z" transform="translate(0.043)"/><text class="p" transform="translate(33.615 19)"><tspan x="0" y="0">User Story</tspan></text></g></g><g transform="translate(964 104)"><g transform="translate(36 501)"><g class="k"><rect class="z" width="134" height="86" rx="5"/><rect class="aa" x="0.5" y="0.5" width="133" height="85" rx="4.5"/></g><text class="o" transform="translate(14.08 35)"><tspan x="0" y="9">As a user I would like to </tspan><tspan x="0" y="21">get a confirmation once </tspan><tspan x="0" y="33">I schedule the service</tspan></text></g><g transform="translate(36.957 501)"><path class="m" d="M5,0H128a5,5,0,0,1,5,5V29H0V5A5,5,0,0,1,5,0Z" transform="translate(0.043)"/><text class="p" transform="translate(33.615 19)"><tspan x="0" y="0">User Story</tspan></text></g></g><g transform="translate(964 -5)"><g transform="translate(36 501)"><g class="k"><rect class="z" width="134" height="96" rx="5"/><rect class="aa" x="0.5" y="0.5" width="133" height="95" rx="4.5"/></g><text class="o" transform="translate(14.08 35)"><tspan x="0" y="9">As a user I’d like to sync </tspan><tspan x="0" y="21">the service with my </tspan><tspan x="0" y="33">calendar</tspan></text></g><g transform="translate(36.957 501)"><path class="m" d="M5,0H128a5,5,0,0,1,5,5V29H0V5A5,5,0,0,1,5,0Z" transform="translate(0.043)"/><text class="p" transform="translate(33.615 19)"><tspan x="0" y="0">User Story</tspan></text></g></g><g transform="translate(129 257)"><g transform="translate(-2.518 131.873) rotate(-41)"><g class="q" transform="translate(203 81.5) rotate(90)"><circle class="z" cx="3.5" cy="3.5" r="3.5"/><circle class="aa" cx="3.5" cy="3.5" r="3"/></g><line class="r" y1="70.053" x2="61.615" transform="translate(197.5 21.385) rotate(90)"/></g><g transform="translate(-130.863 -179)"><g class="q" transform="translate(90.863 179)"><rect class="z" width="162" height="137" rx="5"/><rect class="aa" x="0.5" y="0.5" width="161" height="136" rx="4.5"/></g><text class="s" transform="translate(98.863 195)"><tspan x="0" y="12">• Manager adds event </tspan><tspan x="0" y="28">• link is sent to HR </tspan><tspan x="0" y="44">manager to send to </tspan><tspan x="0" y="60">employees</tspan><tspan x="0" y="76">• Employees can then </tspan><tspan x="0" y="92">sign up</tspan></text></g></g><g transform="translate(660 296)"><rect class="i" width="115" height="60"/><text class="t" transform="translate(19 27)"><tspan x="0" y="0">Select date </tspan><tspan x="0" y="16">and Time</tspan></text></g><g transform="translate(831 294)"><rect class="i" width="109" height="57"/><text class="t" transform="translate(15 25)"><tspan x="0" y="0">Confirm </tspan><tspan x="0" y="16">contact info</tspan></text></g><g transform="translate(1006 294)"><rect class="i" width="121" height="63"/><text class="u" transform="translate(12 28)"><tspan x="0" y="0">Service </tspan><tspan x="0" y="18">Confirmation</tspan></text></g><g transform="translate(938 171)"><path class="v" d="M8,0l8,8H0Z" transform="translate(114 115.5) rotate(180)"/><g transform="translate(-24.5 -32)"><g class="w" transform="translate(32 32)"><rect class="z" width="229" height="109" rx="5"/><rect class="aa" x="0.5" y="0.5" width="228" height="108" rx="4.5"/></g><text class="e" transform="translate(56 37)"><tspan x="0" y="12">Date and time</tspan><tspan x="0" y="32">Ability to cancel/reschedule</tspan><tspan x="0" y="52">Add to a calendar</tspan><tspan x="0" y="72">Sends confirmation email to </tspan><tspan x="0" y="92">client and mechanic</tspan></text></g></g><g transform="translate(579 170)"><path class="v" d="M8,0l8,8H0Z" transform="translate(130 116.5) rotate(180)"/><g transform="translate(-24.5 -32)"><g class="w" transform="translate(32 32)"><rect class="z" width="244" height="109" rx="5"/><rect class="aa" x="0.5" y="0.5" width="243" height="108" rx="4.5"/></g><text class="e" transform="translate(51 44)"><tspan x="0" y="12">Option to choose repair &amp; </tspan><tspan x="0" y="32">consultation date (usually only one </tspan><tspan x="0" y="52">day) and select from a variety of </tspan><tspan x="0" y="72">times</tspan></text></g></g><g class="x" transform="translate(89 130)"><rect class="z" width="339" height="79"/><rect class="aa" x="0.5" y="0.5" width="338" height="78"/></g><text class="y" transform="translate(139 177)"><tspan x="0" y="0">Schedule appointment</tspan></text></g></svg>