<svg xmlns="http://www.w3.org/2000/svg" xmlns:xlink="http://www.w3.org/1999/xlink" width="1281" height="632" viewBox="0 0 1281 632"><defs><style>.a{fill:#eef5fc;}.b{clip-path:url(#d);}.c{fill:#454d58;stroke-width:2px;}.c,.d,.e{stroke:#454d58;}.c,.e{stroke-miterlimit:10;}.ab,.d,.e,.n{fill:none;}.d{stroke-linecap:round;}.e{stroke-linecap:square;stroke-width:1.5px;}.f{clip-path:url(#a);}.g{fill:#dff0f7;}.h,.l,.o{font-size:13px;}.h,.j,.l,.o,.q,.s,.t,.y{font-family:ProximaNova-Regular, Proxima Nova;}.ac,.i,.l,.m,.p,.s,.t,.w,.y{fill:#fff;}.i{stroke:#f1d302;}.j{fill:#575757;font-size:10px;}.k{fill:#f1d302;opacity:0.796;}.m,.n{stroke:#333;}.o{fill:#333;}.p{stroke:#707070;}.q{font-size:24px;}.r{fill:#1c5d99;}.s{font-size:15px;}.t{font-size:16px;}.u{fill:#b0e298;}.v{fill:#7b7b7b;}.w{font-size:14px;font-family:ProximaNova-Medium, Proxima Nova;font-weight:500;}.x{fill:#4a9041;}.y{font-size:12px;}.z{fill:#e55934;stroke:#e2563e;}.aa{stroke:none;}</style><clipPath id="a"><rect class="a" width="89" height="47" rx="23"/></clipPath><clipPath id="d"><rect width="1281" height="632"/></clipPath></defs><g id="c" class="b"><rect class="ac" width="1281" height="632"/><g transform="translate(520 324.5) rotate(90)"><circle class="c" cx="1.75" cy="1.75" r="1.75" transform="translate(38.5 63.5)"/><path class="d" d="M6.341,0,4.449,2.278l-.791.953a.633.633,0,0,1-.974,0L0,0" transform="matrix(-0.035, -0.999, 0.999, -0.035, 144.044, 68)"/><path class="d" d="M6.341,0,4.449,2.278l-.791.953a.633.633,0,0,1-.974,0L0,0" transform="matrix(-0.035, -0.999, 0.999, -0.035, 144.044, 68)"/><path class="e" d="M.5,1.5H104.008" transform="translate(42.5 63.5)"/><g transform="translate(43 65)"><path class="e" d="M.5,1.5H104.008" transform="translate(-0.5 -1.5)"/></g></g><g transform="translate(276 299)"><g class="f"><rect class="g" width="89" height="47" rx="23"/><text class="h" transform="translate(29 28)"><tspan x="0" y="0">Start</tspan></text></g></g><g transform="translate(1127 302)"><g class="f" transform="translate(-1 -1)"><rect class="g" width="89" height="47" rx="23"/><text class="h" transform="translate(29 28)"><tspan x="0" y="0">end</tspan></text></g></g><g transform="translate(567 -129)"><g transform="translate(36 501)"><g class="i"><rect class="aa" width="134" height="105" rx="5"/><rect class="ab" x="0.5" y="0.5" width="133" height="104" rx="4.5"/></g><text class="j" transform="translate(14.08 35)"><tspan x="0" y="9">As a user, I’d like to get </tspan><tspan x="0" y="21">an alert when my bike is </tspan><tspan x="0" y="33">complete with a </tspan><tspan x="0" y="45">summary of my repairs.</tspan></text></g><g transform="translate(36.957 501)"><path class="k" d="M5,0H128a5,5,0,0,1,5,5V29H0V5A5,5,0,0,1,5,0Z" transform="translate(0.043)"/><text class="l" transform="translate(33.615 19)"><tspan x="0" y="0">User Story</tspan></text></g></g><g transform="translate(750 -342)"><g transform="translate(36 501)"><g class="i"><rect class="aa" width="134" height="108" rx="5"/><rect class="ab" x="0.5" y="0.5" width="133" height="107" rx="4.5"/></g><g transform="translate(13.08 36.658)"><text class="j"><tspan x="0" y="9">As a user I’d like to pay </tspan><tspan x="0" y="21">in the app</tspan></text></g></g><g transform="translate(37 501)"><path class="k" d="M5,0H128a5,5,0,0,1,5,5V29H0V5A5,5,0,0,1,5,0Z"/><text class="l" transform="translate(33.572 19)"><tspan x="0" y="0">User Story</tspan></text></g></g><g transform="translate(106 290)"><g transform="translate(107.696 36.607) rotate(-42)"><g class="m" transform="translate(40.899 31.7) rotate(90)"><circle class="aa" cx="3.5" cy="3.5" r="3.5"/><circle class="ab" cx="3.5" cy="3.5" r="3"/></g><line class="n" y1="35.399" x2="33.2" transform="translate(35.399) rotate(90)"/></g><g transform="translate(-40)"><g class="m" transform="translate(0)"><rect class="aa" width="162" height="76" rx="5"/><rect class="ab" x="0.5" y="0.5" width="161" height="75" rx="4.5"/></g><text class="o" transform="translate(8 16)"><tspan x="0" y="12">Bike Mechanic repairs </tspan><tspan x="0" y="28">bike</tspan></text></g></g><g class="p" transform="translate(66 103)"><rect class="aa" width="225" height="110"/><rect class="ab" x="0.5" y="0.5" width="224" height="109"/></g><text class="q" transform="translate(92 120)"><tspan x="0" y="22">Bike repair </tspan><tspan x="0" y="46">summary and </tspan><tspan x="0" y="70">payment</tspan></text><g transform="translate(326.5 257.456)"><circle class="c" cx="1.75" cy="1.75" r="1.75" transform="translate(38.5 63.5)"/><path class="d" d="M6.341,0,4.449,2.278l-.791.953a.633.633,0,0,1-.974,0L0,0" transform="matrix(-0.035, -0.999, 0.999, -0.035, 73.894, 68)"/><path class="d" d="M6.341,0,4.449,2.278l-.791.953a.633.633,0,0,1-.974,0L0,0" transform="matrix(-0.035, -0.999, 0.999, -0.035, 73.894, 68)"/><path class="e" d="M.5,1.5H33.858" transform="translate(42.5 63.5)"/><g transform="translate(43 65)"><path class="e" d="M.5,1.5H33.858" transform="translate(-0.5 -1.5)"/></g></g><g transform="translate(461.5 260.456)"><circle class="c" cx="1.75" cy="1.75" r="1.75" transform="translate(38.5 63.5)"/><path class="d" d="M6.341,0,4.449,2.278l-.791.953a.633.633,0,0,1-.974,0L0,0" transform="matrix(-0.035, -0.999, 0.999, -0.035, 158.553, 68)"/><path class="d" d="M6.341,0,4.449,2.278l-.791.953a.633.633,0,0,1-.974,0L0,0" transform="matrix(-0.035, -0.999, 0.999, -0.035, 158.553, 68)"/><path class="e" d="M.5,1.5H118.517" transform="translate(42.5 63.5)"/><g transform="translate(43 65)"><path class="e" d="M.5,1.5H118.517" transform="translate(-0.5 -1.5)"/></g></g><g transform="translate(675.5 260.456)"><circle class="c" cx="1.208" cy="1.208" r="1.208" transform="translate(38.5 62.894)"/><path class="d" d="M4.377,0,3.071,1.572l-.546.658a.437.437,0,0,1-.672,0L0,0" transform="matrix(-0.035, -0.999, 0.999, -0.035, 121.36, 66)"/><path class="d" d="M4.377,0,3.071,1.572l-.546.658a.437.437,0,0,1-.672,0L0,0" transform="matrix(-0.035, -0.999, 0.999, -0.035, 121.36, 66)"/><path class="e" d="M.5,1.5H81.955" transform="translate(41.106 62.429)"/><g transform="translate(41.606 63.929)"><path class="e" d="M.5,1.5H81.955" transform="translate(-0.5 -1.5)"/></g></g><g transform="translate(852.5 260.456)"><circle class="c" cx="1.75" cy="1.75" r="1.75" transform="translate(38.5 63.5)"/><path class="d" d="M6.341,0,4.449,2.278l-.791.953a.633.633,0,0,1-.974,0L0,0" transform="matrix(-0.035, -0.999, 0.999, -0.035, 95.554, 68)"/><path class="d" d="M6.341,0,4.449,2.278l-.791.953a.633.633,0,0,1-.974,0L0,0" transform="matrix(-0.035, -0.999, 0.999, -0.035, 95.554, 68)"/><path class="e" d="M.5,1.5H55.518" transform="translate(42.5 63.5)"/><g transform="translate(43 65)"><path class="e" d="M.5,1.5H55.518" transform="translate(-0.5 -1.5)"/></g></g><g transform="translate(1003.5 258.456)"><circle class="c" cx="1.75" cy="1.75" r="1.75" transform="translate(38.5 63.5)"/><path class="d" d="M6.341,0,4.449,2.278l-.791.953a.633.633,0,0,1-.974,0L0,0" transform="matrix(-0.035, -0.999, 0.999, -0.035, 120.044, 68)"/><path class="d" d="M6.341,0,4.449,2.278l-.791.953a.633.633,0,0,1-.974,0L0,0" transform="matrix(-0.035, -0.999, 0.999, -0.035, 120.044, 68)"/><path class="e" d="M.5,1.5H80.008" transform="translate(42.5 63.5)"/><g transform="translate(43 65)"><path class="e" d="M.5,1.5H80.008" transform="translate(-0.5 -1.5)"/></g></g><g transform="translate(412 472)"><rect class="r" width="110" height="57"/><text class="s" transform="translate(5 25)"><tspan x="0" y="0">All </tspan><tspan x="0" y="16">appointments</tspan></text></g><g transform="translate(624 299)"><rect class="r" width="113" height="59"/><text class="t" transform="translate(5 15)"><tspan x="0" y="0">Get alert with </tspan><tspan x="0" y="17">service </tspan><tspan x="0" y="34">summary</tspan></text></g><g transform="translate(801 294)"><rect class="r" width="113" height="59"/><text class="t" transform="translate(26 26)"><tspan x="0" y="0">Pay for </tspan><tspan x="0" y="17">service</tspan></text></g><g transform="translate(952 294)"><rect class="r" width="105" height="55"/><text class="s" transform="translate(11 33)"><tspan x="0" y="0">Confirmation</tspan></text></g><g transform="translate(761 363)"><path class="u" d="M8,0l8,8H0Z" transform="translate(81.5)"/><g transform="translate(-32 -24.5)"><g transform="translate(32 32)"><path class="u" d="M178,82.5H5A4.505,4.505,0,0,1,.5,78V5A4.505,4.505,0,0,1,5,.5H178A4.505,4.505,0,0,1,182.5,5V78A4.505,4.505,0,0,1,178,82.5Z"/><path class="u" d="M5,1A4,4,0,0,0,1,5V78a4,4,0,0,0,4,4H178a4,4,0,0,0,4-4V5a4,4,0,0,0-4-4H5M5,0H178a5,5,0,0,1,5,5V78a5,5,0,0,1-5,5H5a5,5,0,0,1-5-5V5A5,5,0,0,1,5,0Z"/></g><text class="h" transform="translate(51 36)"><tspan x="0" y="12">Client receives follow up </tspan><tspan x="0" y="32">email once payment has </tspan><tspan x="0" y="52">been received</tspan></text></g></g><g transform="translate(578 185)"><path class="u" d="M8,8l8-8H0Z" transform="translate(81.5 82.5)"/><path class="u" d="M178,.5H5A4.505,4.505,0,0,0,.5,5V78A4.505,4.505,0,0,0,5,82.5H178a4.505,4.505,0,0,0,4.5-4.5V5A4.505,4.505,0,0,0,178,.5Z"/><path class="u" d="M5,82a4,4,0,0,1-4-4V5A4,4,0,0,1,5,1H178a4,4,0,0,1,4,4V78a4,4,0,0,1-4,4H5m0,1H178a5,5,0,0,0,5-5V5a5,5,0,0,0-5-5H5A5,5,0,0,0,0,5V78A5,5,0,0,0,5,83Z"/><text class="h" transform="translate(19 12)"><tspan x="0" y="12">Mechanic totals up </tspan><tspan x="0" y="32">service and alerts client</tspan></text></g><g transform="translate(403.841 267)"><rect class="v" width="73.11" height="73.11" rx="5" transform="matrix(0.766, 0.643, -0.643, 0.766, 47.153, 0)"/><text class="w" transform="translate(11.159 58)"><tspan x="0" y="0">Is bike done?</tspan></text></g><g transform="translate(459 275)"><circle class="x" cx="19.5" cy="19.5" r="19.5" transform="translate(84 31)"/><text class="y" transform="translate(94 55)"><tspan x="0" y="0">YES</tspan></text></g><g transform="translate(434.112 392)"><g class="z" transform="translate(-0.112)"><circle class="aa" cx="19.5" cy="19.5" r="19.5"/><circle class="ab" cx="19.5" cy="19.5" r="19"/></g><text class="l" transform="translate(9.888 24)"><tspan x="0" y="0">NO</tspan></text></g></g></svg>