<svg xmlns="http://www.w3.org/2000/svg" xmlns:xlink="http://www.w3.org/1999/xlink" width="1281" height="784" viewBox="0 0 1281 784"><defs><style>.a{fill:#eef5fc;}.b{clip-path:url(#d);}.c{clip-path:url(#a);}.d{fill:#dff0f7;}.e,.i,.l,.x{font-size:13px;}.aa,.e,.g,.i,.l,.n,.s,.t,.u{font-family:ProximaNova-Regular, Proxima Nova;}.aa,.ab,.af,.f,.i,.j,.m,.s,.t,.u,.x{fill:#fff;}.f{stroke:#f1d302;}.g{fill:#575757;font-size:10px;}.h{fill:#f1d302;}.ac,.h{opacity:0.796;}.j,.k{stroke:#333;}.ae,.k,.p,.q{fill:none;}.l{fill:#333;}.m{stroke:#707070;}.n{font-size:24px;}.o{fill:#454d58;stroke-width:2px;}.o,.p,.q{stroke:#454d58;}.o,.q{stroke-miterlimit:10;}.p{stroke-linecap:round;}.q{stroke-linecap:square;stroke-width:1.5px;}.r{fill:#1c5d99;}.s{font-size:15px;}.t{font-size:14px;}.u{font-size:16px;}.v{fill:#b0e298;}.w{opacity:0.516;}.x{font-family:ProximaNova-Medium, Proxima Nova;font-weight:500;}.ac,.y{fill:#e55934;}.y{stroke:#e2563e;}.z{fill:#4a9041;}.aa{font-size:12px;}.ab{stroke:#e55934;}.ad{stroke:none;}</style><clipPath id="a"><rect class="a" width="89" height="47" rx="23"/></clipPath><clipPath id="d"><rect width="1281" height="784"/></clipPath></defs><g id="c" class="b"><rect class="af" width="1281" height="784"/><g transform="translate(311 354)"><g class="c"><rect class="d" width="89" height="47" rx="23"/><text class="e" transform="translate(29 28)"><tspan x="0" y="0">Start</tspan></text></g></g><g transform="translate(1093 361)"><g class="c" transform="translate(-1 -1)"><rect class="d" width="89" height="47" rx="23"/><text class="e" transform="translate(29 28)"><tspan x="0" y="0">end</tspan></text></g></g><g transform="translate(581 -271)"><g transform="translate(36 501)"><g class="f"><rect class="ad" width="134" height="93" rx="5"/><rect class="ae" x="0.5" y="0.5" width="133" height="92" rx="4.5"/></g><text class="g" transform="translate(14.08 35)"><tspan x="0" y="9">As a user I’d like </tspan><tspan x="0" y="21">reminders before the </tspan><tspan x="0" y="33">service</tspan></text></g><g transform="translate(36.957 501)"><path class="h" d="M5,0H128a5,5,0,0,1,5,5V29H0V5A5,5,0,0,1,5,0Z" transform="translate(0.043)"/><text class="i" transform="translate(33.615 19)"><tspan x="0" y="0">User Story</tspan></text></g></g><g transform="translate(141 345)"><g transform="translate(107.696 36.607) rotate(-42)"><g class="j" transform="translate(40.899 31.7) rotate(90)"><circle class="ad" cx="3.5" cy="3.5" r="3.5"/><circle class="ae" cx="3.5" cy="3.5" r="3"/></g><line class="k" y1="35.399" x2="33.2" transform="translate(35.399) rotate(90)"/></g><g transform="translate(-40)"><g class="j" transform="translate(0)"><rect class="ad" width="162" height="76" rx="5"/><rect class="ae" x="0.5" y="0.5" width="161" height="75" rx="4.5"/></g><text class="l" transform="translate(8 16)"><tspan x="0" y="12">After client schedules </tspan><tspan x="0" y="28">appointment</tspan></text></g></g><g class="m" transform="translate(100 103)"><rect class="ad" width="225" height="110"/><rect class="ae" x="0.5" y="0.5" width="224" height="109"/></g><text class="n" transform="translate(126 120)"><tspan x="0" y="22">Reminder for </tspan><tspan x="0" y="46">Consultation and </tspan><tspan x="0" y="70">new event</tspan></text><g transform="translate(361.5 312.456)"><circle class="o" cx="1.75" cy="1.75" r="1.75" transform="translate(38.5 63.5)"/><path class="p" d="M6.341,0,4.449,2.278l-.791.953a.633.633,0,0,1-.974,0L0,0" transform="matrix(-0.035, -0.999, 0.999, -0.035, 73.894, 68)"/><path class="p" d="M6.341,0,4.449,2.278l-.791.953a.633.633,0,0,1-.974,0L0,0" transform="matrix(-0.035, -0.999, 0.999, -0.035, 73.894, 68)"/><path class="q" d="M.5,1.5H33.858" transform="translate(42.5 63.5)"/><g transform="translate(43 65)"><path class="q" d="M.5,1.5H33.858" transform="translate(-0.5 -1.5)"/></g></g><g transform="translate(705.5 318.456)"><circle class="o" cx="1.75" cy="1.75" r="1.75" transform="translate(38.5 63.5)"/><path class="p" d="M6.341,0,4.449,2.278l-.791.953a.633.633,0,0,1-.974,0L0,0" transform="matrix(-0.035, -0.999, 0.999, -0.035, 179.857, 68)"/><path class="p" d="M6.341,0,4.449,2.278l-.791.953a.633.633,0,0,1-.974,0L0,0" transform="matrix(-0.035, -0.999, 0.999, -0.035, 179.857, 68)"/><path class="q" d="M.5,1.5H139.821" transform="translate(42.5 63.5)"/><g transform="translate(43 65)"><path class="q" d="M.5,1.5H139.821" transform="translate(-0.5 -1.5)"/></g></g><g transform="translate(969.5 317.456)"><circle class="o" cx="1.75" cy="1.75" r="1.75" transform="translate(38.5 63.5)"/><path class="p" d="M6.341,0,4.449,2.278l-.791.953a.633.633,0,0,1-.974,0L0,0" transform="matrix(-0.035, -0.999, 0.999, -0.035, 120.044, 68)"/><path class="p" d="M6.341,0,4.449,2.278l-.791.953a.633.633,0,0,1-.974,0L0,0" transform="matrix(-0.035, -0.999, 0.999, -0.035, 120.044, 68)"/><path class="q" d="M.5,1.5H80.008" transform="translate(42.5 63.5)"/><g transform="translate(43 65)"><path class="q" d="M.5,1.5H80.008" transform="translate(-0.5 -1.5)"/></g></g><g transform="translate(648 347.619)"><rect class="r" width="121" height="63" transform="translate(0 0.381)"/><text class="s" transform="translate(7 26.381)"><tspan x="0" y="0">Get reminder </tspan><tspan x="0" y="16">for appointment</tspan></text></g><g transform="translate(889 346.848)"><rect class="r" width="141" height="77" transform="translate(0 0.152)"/><text class="t" transform="translate(25 22.152)"><tspan x="0" y="0">Alert with new </tspan><tspan x="0" y="14">event and </tspan><tspan x="0" y="28">summary </tspan><tspan x="0" y="42">added</tspan></text></g><g transform="translate(447 620)"><rect class="r" width="116" height="61"/><text class="u" transform="translate(9 27)"><tspan x="0" y="0">Appointment </tspan><tspan x="0" y="17">Details</tspan></text></g><g transform="translate(602 424)"><path class="v" d="M8,0l8,8H0Z" transform="translate(81.5)"/><g transform="translate(-32 -24.5)"><g transform="translate(32 32)"><path class="v" d="M178,82.5H5A4.505,4.505,0,0,1,.5,78V5A4.505,4.505,0,0,1,5,.5H178A4.505,4.505,0,0,1,182.5,5V78A4.505,4.505,0,0,1,178,82.5Z"/><path class="v" d="M5,1A4,4,0,0,0,1,5V78a4,4,0,0,0,4,4H178a4,4,0,0,0,4-4V5a4,4,0,0,0-4-4H5M5,0H178a5,5,0,0,1,5,5V78a5,5,0,0,1-5,5H5a5,5,0,0,1-5-5V5A5,5,0,0,1,5,0Z"/></g><text class="e" transform="translate(51 44)"><tspan x="0" y="12">Reminder sent to client </tspan><tspan x="0" y="32">and mechanic</tspan></text></g></g><g transform="translate(769 239)"><path class="v" d="M8,50.648,16,0H0Z" transform="translate(83.696 82.5)"/><path class="v" d="M182.388.5H5.111A4.562,4.562,0,0,0,.5,5V78a4.562,4.562,0,0,0,4.611,4.5H182.388A4.562,4.562,0,0,0,187,78V5A4.562,4.562,0,0,0,182.388.5Z" transform="translate(0)"/><path class="v" d="M5.123,82a4.055,4.055,0,0,1-4.1-4V5a4.055,4.055,0,0,1,4.1-4H182.377a4.055,4.055,0,0,1,4.1,4V78a4.055,4.055,0,0,1-4.1,4H5.123m0,1H182.377a5.063,5.063,0,0,0,5.123-5V5a5.063,5.063,0,0,0-5.123-5H5.123A5.063,5.063,0,0,0,0,5V78A5.063,5.063,0,0,0,5.123,83Z"/><text class="e" transform="translate(19 12)"><tspan x="0" y="12">Bring bike to mechanic</tspan><tspan x="0" y="32">Approve/deny repair </tspan><tspan x="0" y="52">suggestions</tspan></text></g><g transform="translate(436.841 303.574)"><rect class="w" width="79.091" height="79.091" rx="5" transform="matrix(0.766, 0.643, -0.643, 0.766, 51.042, 0)"/><text class="x" transform="translate(13.159 54.426)"><tspan x="0" y="0">Getting close to </tspan><tspan x="0" y="16">appointment?</tspan></text></g><g transform="translate(557 376.5) rotate(90)"><circle class="o" cx="1.75" cy="1.75" r="1.75" transform="translate(38.5 63.5)"/><path class="p" d="M6.341,0,4.449,2.278l-.791.953a.633.633,0,0,1-.974,0L0,0" transform="matrix(-0.035, -0.999, 0.999, -0.035, 144.044, 68)"/><path class="p" d="M6.341,0,4.449,2.278l-.791.953a.633.633,0,0,1-.974,0L0,0" transform="matrix(-0.035, -0.999, 0.999, -0.035, 144.044, 68)"/><path class="q" d="M.5,1.5H104.008" transform="translate(42.5 63.5)"/><g transform="translate(43 65)"><path class="q" d="M.5,1.5H104.008" transform="translate(-0.5 -1.5)"/></g></g><g transform="translate(387 355)"><g class="y" transform="translate(85 80)"><circle class="ad" cx="19.5" cy="19.5" r="19.5"/><circle class="ae" cx="19.5" cy="19.5" r="19"/></g><text class="i" transform="translate(95 104)"><tspan x="0" y="0">NO</tspan></text></g><g transform="translate(495.5 311.456)"><circle class="o" cx="1.75" cy="1.75" r="1.75" transform="translate(38.5 63.5)"/><path class="p" d="M6.341,0,4.449,2.278l-.791.953a.633.633,0,0,1-.974,0L0,0" transform="matrix(-0.035, -0.999, 0.999, -0.035, 149.044, 68)"/><path class="p" d="M6.341,0,4.449,2.278l-.791.953a.633.633,0,0,1-.974,0L0,0" transform="matrix(-0.035, -0.999, 0.999, -0.035, 149.044, 68)"/><path class="q" d="M.5,1.5H109.008" transform="translate(42.5 63.5)"/><g transform="translate(43 65)"><path class="q" d="M.5,1.5H109.008" transform="translate(-0.5 -1.5)"/></g></g><g transform="translate(473 329)"><circle class="z" cx="19.5" cy="19.5" r="19.5" transform="translate(84 31)"/><text class="aa" transform="translate(94 55)"><tspan x="0" y="0">YES</tspan></text></g><g transform="translate(554 532.5) rotate(90)"><ellipse class="o" cx="0.771" cy="1.75" rx="0.771" ry="1.75" transform="translate(38.5 63.5)"/><path class="p" d="M6.337.124l-1.846.968L3.719,1.5a1.045,1.045,0,0,1-.482.091,1.129,1.129,0,0,1-.491-.11L0,0" transform="matrix(-0.035, -0.999, 0.999, -0.035, 85.013, 68)"/><path class="p" d="M6.337.124l-1.846.968L3.719,1.5a1.045,1.045,0,0,1-.482.091,1.129,1.129,0,0,1-.491-.11L0,0" transform="matrix(-0.035, -0.999, 0.999, -0.035, 85.013, 68)"/><path class="q" d="M.5,1.5H46.116" transform="translate(39.983 63.5)"/><g transform="translate(40.483 65)"><path class="q" d="M.5,1.5H17.307" transform="translate(-0.5 -1.5)"/></g></g><g transform="translate(450 524)"><rect class="r" width="113" height="59"/><text class="u" transform="translate(5 26)"><tspan x="0" y="0">All </tspan><tspan x="0" y="17">appointments</tspan></text></g><g transform="translate(542 104)"><g transform="translate(36 501)"><g class="ab"><rect class="ad" width="134" height="96" rx="5"/><rect class="ae" x="0.5" y="0.5" width="133" height="95" rx="4.5"/></g><text class="g" transform="translate(14.08 35)"><tspan x="0" y="9">As a user I’d like to sync </tspan><tspan x="0" y="21">the service with my </tspan><tspan x="0" y="33">calendar</tspan></text></g><g transform="translate(36.957 501)"><path class="ac" d="M5,0H128a5,5,0,0,1,5,5V29H0V5A5,5,0,0,1,5,0Z" transform="translate(0.043)"/><text class="i" transform="translate(33.615 19)"><tspan x="0" y="0">User Story</tspan></text></g></g></g></svg>