<?xml version="1.0" encoding="utf-8"?>
<!-- Generator: Adobe Illustrator 24.2.1, SVG Export Plug-In . SVG Version: 6.00 Build 0)  -->
<svg version="1.1" id="Layer_1" xmlns="http://www.w3.org/2000/svg" xmlns:xlink="http://www.w3.org/1999/xlink" x="0px" y="0px"
	 viewBox="0 0 24 24" style="enable-background:new 0 0 24 24;" xml:space="preserve">
<style type="text/css">
	.st0{fill:#F5D16E;}
</style>
<path class="st0" d="M21.8,0H2.2C1,0,0,1,0,2.2v19.6C0,23,1,24,2.2,24h19.6c1.2,0,2.2-1,2.2-2.2V2.2C24,1,23,0,21.8,0z M8,4.7
	c0.8,0,1.5,0.6,1.5,1.4c0,0.8-0.7,1.4-1.5,1.4v0c-0.8,0-1.5-0.7-1.5-1.5S7.2,4.7,8,4.7L8,4.7z M17.8,18.5c-1.5,0-2.2-0.9-2.2-2.1
	c0-0.3,0-0.7,0.1-1.1l0.7-2.5c0.1-0.3,0.1-0.5,0.1-0.8c0-0.8-0.5-1.3-1.3-1.3c-1,0-1.7,0.7-2,2.1l-1.4,5.5H9.5l0.4-1.7
	c-0.7,1.2-1.7,1.9-2.9,1.9c-1.5,0-2.2-0.8-2.2-2.1c0-0.4,0-0.7,0.1-1.1v0l1.1-4.5H4.4l0.5-1.9H9l-1.6,6.4c-0.1,0.4-0.2,0.8-0.2,1
	c0,0.4,0.2,0.5,0.5,0.6c0.2,0,1.7,0,2.6-1.8l1.1-4.2H9.6l0.5-1.9h3.7l-0.5,2.2c0.6-1.2,1.9-2.4,3.2-2.4c1.4,0,2.5,1,2.5,2.8
	c0,0.5-0.1,1.1-0.2,1.6l-0.7,2.5c-0.1,0.3-0.1,0.5-0.1,0.7c0,0.4,0.2,0.6,0.5,0.6s0.7-0.2,1.2-1.6l0.9,0.4
	C20.1,17.7,19.1,18.5,17.8,18.5L17.8,18.5z"/>
</svg>
