<svg width="48" height="46" viewBox="0 0 48 46" fill="none" xmlns="http://www.w3.org/2000/svg">
<g clip-path="url(#clip0_345_23)">
<path d="M0.609143 14.9223H10.8949V45.8789H0.609143V14.9223ZM5.82057 0C2.30057 0 0 2.31086 0 5.34514C0 8.31657 2.23314 10.6949 5.68686 10.6949H5.752C9.34057 10.6949 11.5806 8.31657 11.5806 5.34514C11.5074 2.31086 9.34057 0 5.82057 0ZM36.1531 14.1954C30.6926 14.1954 28.2457 17.1989 26.8811 19.3051V14.9223H16.5954C16.7314 17.8263 16.5954 45.8789 16.5954 45.8789H26.8811V28.5909C26.8811 27.6651 26.9486 26.7429 27.224 26.0766C27.9691 24.2286 29.6629 22.3143 32.5017 22.3143C36.2286 22.3143 37.7166 25.1543 37.7166 29.3143V45.8789H48.0023V28.128C48 18.6194 42.9257 14.1954 36.1531 14.1954Z" fill="#7C7286"/>
</g>
<defs>
<clipPath id="clip0_345_23">
<rect width="48" height="45.8789" fill="white"/>
</clipPath>
</defs>
</svg>
