<svg width="48" height="55" viewBox="0 0 48 55" fill="none" xmlns="http://www.w3.org/2000/svg">
<g clip-path="url(#clip0_348_48)">
<path d="M45.3156 1.524L28.0619 20.7684L24.7002 24.6141C27.5163 32.2245 35.6125 38.5079 37.6911 45.8983L43.2317 46.3066C43.4338 46.322 43.6368 46.2972 43.8292 46.2338C44.0217 46.1703 44.1996 46.0694 44.3529 45.9369C44.5062 45.8044 44.6318 45.6429 44.7224 45.4617C44.813 45.2805 44.8669 45.0831 44.8809 44.881L47.9962 2.66451C48.0202 2.34405 47.9433 2.02411 47.7761 1.74961C47.609 1.47511 47.3602 1.25984 47.0645 1.13403C46.7687 1.00821 46.4411 0.978164 46.1274 1.04811C45.8137 1.11805 45.5299 1.28447 45.3156 1.524Z" fill="#5F259F"/>
<path d="M14.2217 42.5651C14.9415 41.1236 13.8925 41.3102 12.1096 41.9279L10.786 43.5454C10.6021 43.7637 10.4834 44.0294 10.4436 44.3121C10.4037 44.5948 10.4443 44.8829 10.5608 45.1436C12.092 44.7282 13.361 43.9643 14.2217 42.5651Z" fill="#4D4145"/>
<path d="M22.4175 24.2042L3.05522 0.704088C2.8297 0.431118 2.52351 0.236603 2.18059 0.148457C1.83766 0.0603098 1.47563 0.0830623 1.14643 0.213449C0.817242 0.343836 0.537815 0.575154 0.348252 0.87421C0.158689 1.17327 0.0687346 1.52468 0.091297 1.87804L3.50931 53.1904C3.52384 53.41 3.58151 53.6245 3.67901 53.8217C3.7765 54.0189 3.91192 54.1949 4.07751 54.3397C4.2431 54.4846 4.43562 54.5953 4.64405 54.6657C4.85248 54.7361 5.07274 54.7647 5.29224 54.7498L41.6407 52.3298C41.9463 52.3091 42.2404 52.2051 42.491 52.029C42.7416 51.8529 42.9392 51.6115 43.0622 51.331C43.1852 51.0505 43.229 50.7416 43.1888 50.438C43.1485 50.1344 43.0258 49.8475 42.834 49.6087L22.4175 24.2042ZM13.4518 47.2485C11.3521 47.3876 11.734 37.1705 11.7111 35.414C11.705 35.2993 11.7365 35.1857 11.8008 35.0905C11.8651 34.9953 11.9586 34.9237 12.0673 34.8865C12.176 34.8492 12.2938 34.8485 12.403 34.8843C12.5121 34.9201 12.6066 34.9905 12.6721 35.0848C15.364 39.1319 18.5437 42.8323 22.1394 46.1027C22.5671 46.4917 22.1394 46.8314 21.3984 46.8807C18.079 47.1024 15.2946 47.1253 13.4518 47.2485Z" fill="#259D8F" stroke="white" stroke-width="0.5" stroke-miterlimit="10"/>
<path d="M13.6936 38.7492L19.5546 45.1205C19.6549 45.2233 19.7214 45.3542 19.7451 45.4959C19.7689 45.6375 19.7488 45.783 19.6875 45.9128C19.6262 46.0427 19.5266 46.1507 19.4022 46.2224C19.2778 46.294 19.1344 46.326 18.9913 46.3138L7.50352 45.6714C7.3087 45.6607 7.12078 45.5956 6.96101 45.4836C6.80124 45.3716 6.676 45.2172 6.59945 45.0377C6.5229 44.8582 6.4981 44.6609 6.52785 44.4681C6.55761 44.2753 6.64073 44.0946 6.76782 43.9466L12.1307 37.6843C12.1685 37.6413 12.2151 37.6068 12.2673 37.5832C12.3195 37.5596 12.3761 37.5474 12.4334 37.5474C12.4907 37.5474 12.5473 37.5596 12.5995 37.5832C12.6517 37.6068 12.6983 37.6413 12.7361 37.6843L13.6936 38.7492Z" fill="#5F259F"/>
</g>
<defs>
<clipPath id="clip0_348_48">
<rect width="48" height="54.8431" fill="white"/>
</clipPath>
</defs>
</svg>
