<svg xmlns="http://www.w3.org/2000/svg" viewBox="0 0 272.72 311.6"><defs><style>.cls-1{fill:#392f5a;}.cls-2{fill:#4c4045;}.cls-3{fill:#20a39e;stroke:#fff;stroke-miterlimit:10;}</style></defs><g id="Layer_2" data-name="Layer 2"><g id="Layer_1-2" data-name="Layer 1"><path class="cls-1" d="M257.47,8.66,159.44,118l-19.1,21.85c16,43.24,62,78.94,73.81,120.93l31.48,2.32A8.73,8.73,0,0,0,255,255L272.7,15.14A8.74,8.74,0,0,0,257.47,8.66Z"/><path class="cls-2" d="M80.8,241.84c4.09-8.19-1.87-7.13-12-3.62l-7.52,9.19A8.63,8.63,0,0,0,60,256.49C68.7,254.13,75.91,249.79,80.8,241.84Z"/><path class="cls-3" d="M127.37,137.52,17.36,4A9.52,9.52,0,0,0,.52,10.67L19.94,302.21a9.51,9.51,0,0,0,10.13,8.86l206.52-13.75a9.52,9.52,0,0,0,6.78-15.46ZM76.43,268.45c-11.93.79-9.76-57.26-9.89-67.24A3,3,0,0,1,72,199.34a336.65,336.65,0,0,0,53.79,62.6c2.43,2.21,0,4.14-4.21,4.42C102.72,267.62,86.9,267.75,76.43,268.45Z"/><path class="cls-1" d="M77.8,220.16l33.3,36.2a4,4,0,0,1-3.2,6.78l-65.27-3.65a5.94,5.94,0,0,1-4.18-9.8l30.47-35.58a2.29,2.29,0,0,1,3.44,0Z"/></g></g></svg>