<svg xmlns="http://www.w3.org/2000/svg" viewBox="0 0 2596.76 1488.52"><defs><style>.a{fill:#fbba72;}.b{fill:#fdd9b0;}.c{fill:#cee5b2;}.aa,.d,.g,.h,.i,.k,.l,.m,.n,.o,.p,.r,.s,.t,.u,.v,.w,.x,.z{fill:none;stroke-miterlimit:10;}.d,.k,.n,.o,.p,.r,.t,.u,.v,.w,.x,.z{stroke:#80766e;}.d{stroke-width:4px;}.e{fill:#f6bfb4;}.f{fill:#efeeec;}.g,.h,.i{stroke:#fbba72;}.g,.h,.i,.k{stroke-width:4.78px;}.h{stroke-dasharray:13.85 13.85;}.i{stroke-dasharray:14.53 14.53;}.j{fill:#c3e5d9;}.l,.m{stroke:#f6bfb4;stroke-width:5.13px;}.m,.p,.s,.t,.v,.w,.x{stroke-linecap:round;}.n{stroke-width:3.85px;}.o,.p{stroke-width:3px;}.q{fill:#80766e;}.r{stroke-width:2.34px;}.s{stroke:#efeeec;}.s,.t,.u{stroke-width:3.12px;}.v{stroke-width:4.65px;}.w{stroke-width:2.94px;}.x{stroke-width:2.38px;}.y{fill:#4b3c32;}.z{stroke-width:2.64px;}.aa{stroke:#e74425;stroke-width:7.82px;}</style></defs><path class="a" d="M1079.28,171.32H1394.2a0,0,0,0,1,0,0v78.11a0,0,0,0,1,0,0H1079.28A21.43,21.43,0,0,1,1057.84,228V192.75a21.43,21.43,0,0,1,21.43-21.43Z" transform="translate(193.49 904.1) rotate(-43.63)"/><path class="b" d="M1381.87,116.93a40.82,40.82,0,1,1-60.37-55c10.11-11.1,41.48-18.69,61.33-22.53a13.28,13.28,0,0,1,15.73,14.32C1396.6,73.89,1392,105.84,1381.87,116.93Z"/><path class="c" d="M1393.24,76.15a21.77,21.77,0,1,1-32.19-29.31c5.38-5.91,22.11-10,32.7-12a7.07,7.07,0,0,1,8.38,7.63C1401.09,53.19,1398.62,70.23,1393.24,76.15Z"/><path class="d" d="M1380.13,134.62l-226.05,215.5a21.44,21.44,0,0,1-30.31-.73l-24.31-25.5a21.44,21.44,0,0,1,.72-30.31l222.1-211.73a40.83,40.83,0,0,0,57.85,52.77Z"/><line class="d" x1="1123.32" y1="322.27" x2="1322.62" y2="135.47"/><path class="d" d="M1322.28,81.85a40.48,40.48,0,0,1,6.54-9.65c7.61-8.36,27.29-14.73,45-19a19.39,19.39,0,0,0-5.47,3.86,21.77,21.77,0,1,0,32.19,29.31,19.75,19.75,0,0,0,3.33-5.81c-2.59,18-7.09,38.23-14.7,46.59a41.06,41.06,0,0,1-9.06,7.47"/><path class="d" d="M1403.89,80.56c3.13-7.79,4.76-19.67,5.56-27.88a7.07,7.07,0,0,0-8.38-7.63c-8.09,1.56-19.77,4.3-27.23,8.15"/><path class="a" d="M1750.37,50.18h57.76a119.08,119.08,0,0,1,119.08,119.08v0a0,0,0,0,1,0,0H1631.28a0,0,0,0,1,0,0v0A119.08,119.08,0,0,1,1750.37,50.18Z"/><path class="a" d="M1634.28,231.9a119.15,119.15,0,0,0,116.09,92.47h57.75a119.12,119.12,0,0,0,116.58-94.65"/><path class="c" d="M1629.71,206.29H1925l10,7.81c7.4,5.76,2.28,17.6-7,16.15L1918,228.68l-.91,2.74a20.1,20.1,0,0,1-33.28,7.86l-5-5-3,3.51a29.64,29.64,0,0,1-43.53,1.76l-5.27-5.27-8.32,7.56a29.36,29.36,0,0,1-42.13-2.71l-4.13-4.85-15.21,7.09A26.74,26.74,0,0,1,1720.71,226l0-.1-46.87,15.62a18.89,18.89,0,0,1-24.51-14.22h0l-14.91,4.58c-10.9,3.36-19.22-9.88-11.47-18.25Z"/><rect class="e" x="1631.28" y="173.96" width="295.92" height="26.63" rx="11.6"/><path class="d" d="M1765.59,58.18h57.76a119.08,119.08,0,0,1,119.08,119.08v0a0,0,0,0,1,0,0H1646.5a0,0,0,0,1,0,0v0A119.08,119.08,0,0,1,1765.59,58.18Z"/><path class="d" d="M1649.5,239.89a119.15,119.15,0,0,0,116.09,92.47h57.75a119.12,119.12,0,0,0,116.58-94.65"/><path class="d" d="M1942.4,216h0c0-.89,0-1.78,0-2.68H1646.51c0,.33,0,.67,0,1"/><path class="d" d="M1644.93,214.28h295.3l10,7.82c7.4,5.76,2.28,17.6-7,16.15l-10.07-1.57-.91,2.74a20.1,20.1,0,0,1-33.28,7.85l-5-5-3,3.51a29.64,29.64,0,0,1-43.53,1.77l-5.27-5.28-8.32,7.57a29.38,29.38,0,0,1-42.14-2.71l-4.12-4.86-15.21,7.1a26.73,26.73,0,0,1-36.54-15.4l0-.09L1689,249.5a18.9,18.9,0,0,1-24.51-14.22h0l-14.91,4.58c-10.9,3.36-19.22-9.88-11.47-18.25Z"/><rect class="d" x="1646.5" y="181.96" width="295.92" height="26.63" rx="11.6"/><polygon class="f" points="349.51 1230.74 248.66 1230.74 248.66 1127.03 113.12 1127.03 113.12 1230.74 2.36 1230.74 2.36 1366.29 113.12 1366.29 113.12 1474.17 248.66 1474.17 248.66 1366.29 349.51 1366.29 349.51 1230.74"/><line class="g" x1="175.94" y1="1147.68" x2="175.94" y2="1154.85"/><line class="h" x1="175.94" y1="1168.7" x2="175.94" y2="1438.68"/><line class="g" x1="175.94" y1="1445.6" x2="175.94" y2="1452.77"/><line class="g" x1="306.58" y1="1300.6" x2="299.41" y2="1300.6"/><line class="i" x1="284.88" y1="1300.6" x2="59.72" y2="1300.6"/><line class="g" x1="52.46" y1="1300.6" x2="45.29" y2="1300.6"/><path class="j" d="M262.8,1220c0,23.72-19.24,65-43,65s-43-41.31-43-65a43,43,0,0,1,85.92,0Z"/><path class="e" d="M197.35,1246.05c0,23.73-19.23,65-42.95,65s-43-41.31-43-65a43,43,0,1,1,85.91,0Z"/><path class="c" d="M219.84,1192.06c0,23.72-19.23,65-43,65s-43-41.31-43-65a43,43,0,0,1,85.92,0Z"/><path class="k" d="M212.28,1167.46c-.89,0-1.78,0-2.66.09a43,43,0,0,0-83.25,14.92,65.82,65.82,0,0,0,2,15.2,43,43,0,0,0-24.52,38.8c0,23.72,19.23,65,43,65,17.4,0,32.37-22.21,39.12-43.42,7.28,10.14,16.4,17.37,26.32,17.37,23.73,0,43-41.31,43-65A43,43,0,0,0,212.28,1167.46Z"/><path class="k" d="M144.8,1300.17c-2.73,20.86-5.27,43,3.56,62.11,4.26,9.2,12.56,17.91,22.7,17.54,6.06-.22,12.24-4.62,12.83-10.66s-6.41-11.92-11.79-9.11c-3.47,1.82-4.88,6-5.52,9.89-3.84,22.88,9.73,47.52,31.12,56.5"/><path class="k" d="M170.74,1247.59c-11.62,27.42-2.77,58.77,6.58,87s19.16,59,9.19,87.1"/><path class="k" d="M211.9,1274.81c-18.75,45.61-5.38,99.73-24.78,145.06"/><polygon class="k" points="356.91 1219.19 256.07 1219.19 256.07 1115.47 120.52 1115.47 120.52 1219.19 9.77 1219.19 9.77 1354.73 120.52 1354.73 120.52 1462.62 256.07 1462.62 256.07 1354.73 356.91 1354.73 356.91 1219.19"/><circle class="f" cx="717.47" cy="174.83" r="147.16"/><path class="l" d="M612.73,71.5c56.44,62,154,62,210.44,0"/><path class="l" d="M624.84,289.16c47.64-61.43,140.42-61.43,188.07,0"/><line class="m" x1="623.19" y1="94.77" x2="617.14" y2="75.12"/><line class="m" x1="638.88" y1="81.15" x2="619.23" y2="75.11"/><line class="m" x1="644.79" y1="284.25" x2="624.83" y2="289.16"/><line class="m" x1="632.09" y1="267.8" x2="624.93" y2="287.07"/><line class="m" x1="661.26" y1="268.06" x2="641.3" y2="272.98"/><line class="m" x1="648.57" y1="251.62" x2="641.41" y2="270.89"/><line class="m" x1="685.51" y1="259.69" x2="665.38" y2="255.51"/><line class="m" x1="681.15" y1="239.37" x2="666.38" y2="253.67"/><line class="m" x1="708.31" y1="254.14" x2="689.58" y2="245.68"/><line class="m" x1="708.48" y1="233.37" x2="690.95" y2="244.1"/><line class="m" x1="732.54" y1="254.71" x2="716.31" y2="242.09"/><line class="m" x1="737.57" y1="234.55" x2="718.01" y2="240.88"/><line class="m" x1="761.09" y1="259.99" x2="744.86" y2="247.37"/><line class="m" x1="766.12" y1="239.83" x2="746.56" y2="246.16"/><line class="m" x1="780.23" y1="269.95" x2="769.94" y2="252.16"/><line class="m" x1="792.47" y1="253.17" x2="771.97" y2="251.68"/><line class="m" x1="799.3" y1="286.58" x2="789.01" y2="268.78"/><line class="m" x1="811.54" y1="269.79" x2="791.04" y2="268.3"/><line class="m" x1="646.96" y1="109.95" x2="635.65" y2="92.78"/><line class="m" x1="658.21" y1="92.49" x2="637.65" y2="92.18"/><line class="m" x1="672.17" y1="123.38" x2="660.86" y2="106.21"/><line class="m" x1="683.42" y1="105.91" x2="662.86" y2="105.61"/><line class="m" x1="710.85" y1="128.73" x2="693.64" y2="117.49"/><line class="m" x1="714.21" y1="108.23" x2="695.23" y2="116.15"/><line class="m" x1="741.62" y1="125.18" x2="722.55" y2="117.48"/><line class="m" x1="740.94" y1="104.41" x2="723.86" y2="115.85"/><line class="m" x1="769.43" y1="121.91" x2="749.9" y2="115.5"/><line class="m" x1="767.38" y1="101.24" x2="751.09" y2="113.79"/><line class="m" x1="799.01" y1="101.73" x2="779" y2="106.41"/><line class="m" x1="786.51" y1="85.14" x2="779.12" y2="104.33"/><line class="m" x1="820.95" y1="88.08" x2="800.93" y2="92.76"/><line class="m" x1="808.45" y1="71.49" x2="801.06" y2="90.68"/><circle class="n" cx="700.22" cy="180.91" r="147.16"/><path class="n" d="M595.48,77.57c56.44,62,154,62,210.44,0"/><path class="n" d="M607.59,295.23c47.64-61.42,140.42-61.42,188.07,0"/><circle class="j" cx="166.99" cy="190.21" r="15.02"/><path class="j" d="M167,23.22a167,167,0,1,0,167,167A167,167,0,0,0,167,23.22Zm0,215.47a48.49,48.49,0,1,1,48.48-48.48A48.49,48.49,0,0,1,167,238.69Z"/><circle class="o" cx="172.7" cy="182.23" r="166.99"/><path class="p" d="M61.17,182.23A111.53,111.53,0,0,1,172.7,70.7"/><path class="p" d="M88.61,180.72a78,78,0,0,1,78-78"/><circle class="o" cx="176.09" cy="190.21" r="48.48"/><circle class="o" cx="176.09" cy="190.21" r="15.02"/><path class="q" d="M308.13,141.08l-2.06-.73,9-25.08a6.59,6.59,0,0,0,.38-2.12,6.5,6.5,0,0,0-.22-4.36L272.39,5.52A6.5,6.5,0,0,0,263.89,2h0a6.5,6.5,0,0,0-3.52,8.5l42,101.43-8.59,24-.69-.25a11.53,11.53,0,0,0-14.73,7L268.32,170.9a11.53,11.53,0,0,0,7,14.73l15,5.36A11.52,11.52,0,0,0,305,184l10.09-28.21A11.53,11.53,0,0,0,308.13,141.08Z"/><path class="o" d="M316.55,141.08l-2.06-.73,9-25.08a6.59,6.59,0,0,0,.38-2.12,6.5,6.5,0,0,0-.22-4.36L280.81,5.52A6.5,6.5,0,0,0,272.31,2h0a6.5,6.5,0,0,0-3.52,8.5l42,101.43-8.59,24-.69-.25a11.53,11.53,0,0,0-14.73,7L276.74,170.9a11.53,11.53,0,0,0,7,14.73l15,5.36a11.52,11.52,0,0,0,14.72-7l10.09-28.21A11.53,11.53,0,0,0,316.55,141.08Z"/><line class="d" x1="646.16" y1="784.02" x2="644.78" y2="782.53"/><line class="d" x1="681.43" y1="821.94" x2="680.15" y2="820.56"/><path class="j" d="M697.73,839.46,702,844l6.1,6.57a14,14,0,1,0,20.51-19.09l-6.1-6.56,2-1.83,10.24,11A14,14,0,1,0,755.19,815l-10.23-11,2.49-2.32L760.69,816a14,14,0,0,0,20.51-19.09L768,782.64l.94-.87,15.45,16.61a14,14,0,1,0,20.51-19.08L789.6,762.9l-.19-.21-73.63-79.14-3.58-3.85"/><path class="j" d="M628.47,765l-88.11-94.7,62.8-58.43,22.3,19.38A86.77,86.77,0,0,0,661,649.85l30.77,7.84"/><line class="d" x1="663.86" y1="803.04" x2="662.46" y2="801.55"/><polygon class="j" points="715.75 683.6 684.45 662.87 627.64 766.98 700.77 838.2 715.75 683.6"/><path class="c" d="M800.26,619.67c-1.75-3.22-22.34,17.38-25.42,15.41l-3-1.54-1.6-.67a21.39,21.39,0,0,0-6.58-1.16l-42.83-.87a21.58,21.58,0,0,0-19.57,11.6,14.76,14.76,0,0,0-2.5,3.17L681,676c-3.73,6.38-1.89,14.8,4.29,19.7h0a7.91,7.91,0,0,0,10.37-.19l22.62-21.7c.55.06,1.12.1,1.69.11l6,.12-10.85,10.1,73.82,79.35c8.93-8.31,29.08-18.86,36.49-32.31,4.05-7.38.68-16.34,1.62-17.21,2.91-2.71,31.55-14.22,34.47-16.93C846.45,666.65,815.32,650.1,800.26,619.67Z"/><rect class="c" x="676.98" y="812.64" width="23.93" height="37.26" rx="11.97" transform="translate(843.72 -237.24) rotate(47.89)"/><rect class="c" x="659.68" y="793.49" width="23.93" height="37.26" rx="11.97" transform="translate(823.81 -230.71) rotate(47.89)"/><rect class="c" x="642.27" y="774.23" width="23.93" height="37.26" rx="11.97" transform="translate(803.78 -224.14) rotate(47.89)"/><rect class="c" x="624.85" y="754.96" width="23.93" height="37.26" rx="11.97" transform="translate(783.75 -217.57) rotate(47.89)"/><rect class="e" x="522.65" y="568.85" width="59.59" height="100.55" transform="translate(641.35 -205.87) rotate(47.89)"/><rect class="a" x="824.39" y="582.95" width="59.59" height="111.4" transform="translate(1919.08 579.31) rotate(140.03)"/><line class="d" x1="652.41" y1="774.66" x2="651.03" y2="773.17"/><line class="d" x1="687.68" y1="812.58" x2="686.41" y2="811.21"/><path class="d" d="M704,830.11l4.25,4.56,6.09,6.57a14,14,0,1,0,20.51-19.09l-6.1-6.56,2-1.83,10.23,11a14,14,0,1,0,20.51-19.09l-10.23-11,2.5-2.32,13.23,14.23a14,14,0,1,0,20.51-19.09l-13.24-14.23.95-.87L790.61,789a14,14,0,0,0,20.51-19.09l-15.26-16.4-.2-.21L722,674.19l-3.58-3.85"/><path class="d" d="M634.72,755.65,546.62,661l62.79-58.43,22.31,19.38a86.62,86.62,0,0,0,35.49,18.59L698,648.33"/><line class="d" x1="670.11" y1="793.68" x2="668.72" y2="792.19"/><path class="d" d="M806.51,610.32c-1.74-3.22-22.34,17.37-25.42,15.4l-3-1.54-1.6-.67a21.34,21.34,0,0,0-6.58-1.16l-42.83-.87a21.56,21.56,0,0,0-19.56,11.61,14.5,14.5,0,0,0-2.51,3.16l-17.76,30.43c-3.73,6.38-1.9,14.8,4.28,19.7h0a7.92,7.92,0,0,0,10.37-.2l22.62-21.7c.56.06,1.12.1,1.69.11l6,.12-10.86,10.1,73.82,79.35c8.93-8.31,29.09-18.85,36.49-32.31,4.06-7.38.69-16.34,1.62-17.21,2.92-2.71,31.56-14.22,34.47-16.93C852.7,657.29,821.57,640.74,806.51,610.32Z"/><rect class="d" x="683.24" y="803.28" width="23.93" height="37.26" rx="11.97" transform="translate(838.84 -244.96) rotate(47.89)"/><rect class="d" x="665.93" y="784.14" width="23.93" height="37.26" rx="11.97" transform="translate(818.93 -238.43) rotate(47.89)"/><rect class="d" x="648.52" y="764.87" width="23.93" height="37.26" rx="11.97" transform="translate(798.9 -231.86) rotate(47.89)"/><rect class="d" x="631.11" y="745.6" width="23.93" height="37.26" rx="11.97" transform="translate(778.87 -225.29) rotate(47.89)"/><rect class="d" x="528.9" y="559.49" width="59.59" height="100.55" transform="translate(636.47 -213.59) rotate(47.89)"/><rect class="d" x="830.65" y="573.59" width="59.59" height="111.4" transform="translate(1924.11 558.76) rotate(140.03)"/><circle class="j" cx="161.91" cy="620.89" r="152.09"/><circle class="r" cx="173.16" cy="611.82" r="152.09"/><path class="s" d="M107,489.26a391.55,391.55,0,0,0,0,366.4"/><path class="s" d="M137.13,479.16a860.09,860.09,0,0,0,0,375.19"/><path class="b" d="M127.54,854.35h68.74A38.71,38.71,0,0,1,235,893.06v58.1a27.54,27.54,0,0,1-27.54,27.54H116.36a27.54,27.54,0,0,1-27.54-27.54v-58.1A38.71,38.71,0,0,1,127.54,854.35Z"/><path class="s" d="M221.3,489.26a391.49,391.49,0,0,1,0,366.4"/><path class="t" d="M235.47,478.91a391.49,391.49,0,0,1,0,366.4"/><path class="t" d="M121.16,478.91a391.55,391.55,0,0,0,0,366.4"/><path class="t" d="M151.3,468.81a860.09,860.09,0,0,0,0,375.19"/><path class="t" d="M200.81,468.81a859.79,859.79,0,0,1,0,375.19"/><path class="u" d="M141.71,844h68.74a38.71,38.71,0,0,1,38.71,38.71v58.1a27.54,27.54,0,0,1-27.54,27.54H130.53A27.54,27.54,0,0,1,103,940.81v-58.1A38.71,38.71,0,0,1,141.71,844Z"/><polygon class="a" points="2318.45 47.52 2155.03 330.57 2481.87 330.57 2318.45 47.52"/><path class="b" d="M2318.45,150.27l-12.31,42.32a38.43,38.43,0,0,1-11.76,18.33l-10.12,8.77a39.26,39.26,0,0,0-13.13,23.87l-2.68,17.9a36.38,36.38,0,0,1-8.69,18.66l-44.49,50.45h103.18Z"/><path class="b" d="M2318.45,150.27l12.32,42.32a38.49,38.49,0,0,0,11.75,18.33l10.13,8.77a39.31,39.31,0,0,1,13.13,23.87l2.68,17.9a36.22,36.22,0,0,0,8.69,18.66l44.49,50.45H2318.45Z"/><polyline class="v" points="2436.46 330.57 2496.69 330.57 2333.26 47.51 2169.85 330.57 2230.08 330.57"/><line class="v" x1="2333.27" y1="47.52" x2="2333.27" y2="350.92"/><path class="v" d="M2230.08,330.57l43.34-49.13a42.47,42.47,0,0,0,10.11-21.71l2.06-13.81a45.74,45.74,0,0,1,15.28-27.78l6.92-6a44.77,44.77,0,0,0,13.69-21.33l11.78-40.53V330.57h-2.41"/><path class="v" d="M2333.26,330.57V150.28l11.8,40.53a44.83,44.83,0,0,0,13.68,21.33l6.93,6A45.74,45.74,0,0,1,2381,245.92l2.06,13.81a42.39,42.39,0,0,0,10.11,21.71l43.34,49.13"/><path class="j" d="M2412.57,1227.74h8.24v-61.66H2235.05v61.66h7.86V1411a61.92,61.92,0,0,0-27-6c-28.81,0-52.17,18.71-52.17,41.78s23.36,41.78,52.17,41.78,52.17-18.7,52.17-41.78a34.29,34.29,0,0,0-3-14h.08v-205h125.28v180.57a62,62,0,0,0-27-6c-28.82,0-52.17,18.71-52.17,41.78s23.35,41.78,52.17,41.78,52.17-18.71,52.17-41.78a34.42,34.42,0,0,0-3-14h.08Z"/><path class="w" d="M2421.56,1222.64h8.24V1161H2244.05v61.66h7.86V1405.9a61.85,61.85,0,0,0-27-6c-28.82,0-52.17,18.7-52.17,41.78s23.35,41.78,52.17,41.78,52.16-18.71,52.16-41.78a34.41,34.41,0,0,0-3-14h.08v-205h125.27V1403.2a61.92,61.92,0,0,0-27-6c-28.81,0-52.17,18.7-52.17,41.77s23.36,41.78,52.17,41.78,52.17-18.7,52.17-41.78a34.25,34.25,0,0,0-3-14h.08Z"/><polygon class="j" points="1401.4 885.85 1272.79 885.85 1272.79 605.63 1401.4 586.54 1401.4 885.85"/><rect class="f" x="1283.9" y="665.37" width="48.67" height="28.23"/><rect class="f" x="1337.09" y="717.51" width="48.67" height="28.23"/><rect class="f" x="1283.9" y="775.46" width="48.67" height="28.23"/><rect class="f" x="1337.09" y="831.65" width="48.67" height="28.23"/><polygon class="b" points="1272.79 885.85 1115.72 885.85 1115.72 543.62 1272.79 605.63 1272.79 885.85"/><rect class="f" x="1129.3" y="616.58" width="59.44" height="34.48"/><rect class="f" x="1194.25" y="680.26" width="59.44" height="34.48"/><rect class="f" x="1129.3" y="751.03" width="59.44" height="34.48"/><rect class="f" x="1194.25" y="819.65" width="59.44" height="34.48"/><polygon class="e" points="1486.02 885.85 1401.4 885.85 1401.4 701.47 1443.71 665.37 1486.02 701.47 1486.02 885.85"/><rect class="f" x="1408.71" y="740.78" width="32.03" height="18.57"/><rect class="f" x="1443.71" y="775.09" width="32.03" height="18.57"/><rect class="f" x="1408.71" y="813.22" width="32.03" height="18.57"/><rect class="f" x="1443.71" y="850.19" width="32.03" height="18.57"/><polygon class="q" points="1115.72 885.7 1016.26 885.7 1016.26 668.98 1065.99 626.54 1115.72 668.98 1115.72 885.7"/><rect class="f" x="1024.85" y="715.18" width="37.64" height="21.83"/><rect class="f" x="1065.99" y="755.51" width="37.64" height="21.83"/><rect class="f" x="1024.85" y="800.32" width="37.64" height="21.83"/><rect class="f" x="1065.99" y="843.78" width="37.64" height="21.83"/><polygon class="x" points="1392.52 891.73 1263.91 891.73 1263.91 611.51 1392.52 592.42 1392.52 891.73"/><rect class="x" x="1275.02" y="671.25" width="48.67" height="28.23"/><rect class="x" x="1328.21" y="723.39" width="48.67" height="28.23"/><rect class="x" x="1275.02" y="781.34" width="48.67" height="28.23"/><rect class="x" x="1328.21" y="837.53" width="48.67" height="28.23"/><polygon class="x" points="1263.91 891.73 1106.84 891.73 1106.84 549.5 1263.91 611.51 1263.91 891.73"/><rect class="x" x="1120.42" y="622.46" width="59.44" height="34.48"/><rect class="x" x="1185.37" y="686.14" width="59.44" height="34.48"/><rect class="x" x="1120.42" y="756.91" width="59.44" height="34.48"/><rect class="x" x="1185.37" y="825.53" width="59.44" height="34.48"/><polygon class="x" points="1477.14 891.73 1392.52 891.73 1392.52 707.35 1434.83 671.25 1477.14 707.35 1477.14 891.73"/><rect class="x" x="1399.83" y="746.66" width="32.03" height="18.57"/><rect class="x" x="1434.83" y="780.97" width="32.03" height="18.57"/><rect class="x" x="1399.83" y="819.09" width="32.03" height="18.57"/><rect class="x" x="1434.83" y="856.07" width="32.03" height="18.57"/><polygon class="x" points="1106.84 891.58 1007.38 891.58 1007.38 674.86 1057.11 632.42 1106.84 674.86 1106.84 891.58"/><rect class="x" x="1015.97" y="721.06" width="37.64" height="21.83"/><rect class="x" x="1057.11" y="761.38" width="37.64" height="21.83"/><rect class="x" x="1015.97" y="806.2" width="37.64" height="21.83"/><rect class="x" x="1057.11" y="849.66" width="37.64" height="21.83"/><path class="y" d="M1270.13,1481.45h-89.4c-4.93,0-8.41-4.4-3.81-7.09l8.25-4.83c7.91-4.62,12.87-10.51,14.16-16.8l1.72-8.36c1.93-9.41.42-18.94-4.44-28l-5.15-9.61c0-5.44,8.07-9.86,18-9.86h40.37c10,0,18,4.42,18,9.86l-7.27,11.52a29.12,29.12,0,0,0-4.78,15.59v14.27c0,9.6,6.83,18.82,19,25.71l2.08,1.18C1281.21,1477.41,1278.08,1481.45,1270.13,1481.45Z"/><polygon class="c" points="1340.51 1413.36 1279.65 1307.94 1316.01 1307.94 1255.7 1203.48 1296.59 1203.48 1247.1 1117.76 1273.51 1117.76 1230.21 1042.76 1186.91 1117.76 1213.32 1117.76 1163.83 1203.48 1204.71 1203.48 1144.4 1307.94 1180.77 1307.94 1119.9 1413.36 1340.51 1413.36"/><path class="d" d="M1292.91,1471.41l-2.08-1.17c-12.21-6.9-19-16.12-19-25.72v-14.26a29.12,29.12,0,0,1,4.78-15.6l1.88-3h78l-60.86-105.42H1332l-60.31-104.47h40.89l-49.49-85.71h26.41l-43.3-75-43.3,75h26.41l-49.49,85.71h40.89l-60.32,104.47h36.37l-60.86,105.42H1212l.57,1c4.86,9.09,6.37,18.62,4.44,28l-1.72,8.36c-1.29,6.29-6.25,12.18-14.15,16.81l-8.26,4.82c-4.6,2.69-1.12,7.09,3.81,7.09h89.4C1294.06,1477.86,1297.19,1473.82,1292.91,1471.41Z"/><polygon class="y" points="2324.57 557.03 2190.91 851.52 2458.22 851.52 2324.57 557.03"/><polygon class="f" points="2190.91 620.02 2057.25 851.52 2324.57 851.52 2190.91 620.02"/><polygon class="q" points="2453.04 620.02 2319.39 851.52 2586.7 851.52 2453.04 620.02"/><polygon class="z" points="2460.81 611.96 2404.89 708.82 2332.33 548.96 2257.5 713.84 2198.67 611.96 2065.02 843.46 2198.67 843.46 2327.15 843.46 2332.33 843.46 2465.99 843.46 2594.47 843.46 2460.81 611.96"/><path class="e" d="M1789.63,536.37a93.73,93.73,0,0,0-93.73,93.73c0,51.77,93.73,226.12,93.73,226.12s93.74-174.35,93.74-226.12A93.73,93.73,0,0,0,1789.63,536.37Zm-67.44,82.3s42.39-40,68.59-40,66.3,40,66.3,40-40.1,40-66.3,40S1722.19,618.67,1722.19,618.67Z"/><path class="aa" d="M1782.92,541.33a93.72,93.72,0,0,0-93.73,93.73c0,51.77,93.73,226.12,93.73,226.12s93.73-174.35,93.73-226.12A93.72,93.72,0,0,0,1782.92,541.33Zm-67.44,82.3s42.39-40,68.58-40,66.3,40,66.3,40-40.1,40-66.3,40S1715.48,623.63,1715.48,623.63Z"/><circle class="j" cx="1784.88" cy="621.95" r="30.81"/><circle class="y" cx="1784.88" cy="621.95" r="15.81"/><circle class="f" cx="1774.79" cy="609.64" r="2.86"/><circle class="f" cx="1792.83" cy="635.59" r="1.43"/></svg>