<svg xmlns="http://www.w3.org/2000/svg" viewBox="0 0 568.53 387.03"><defs><style>.a{fill:#4b3c32;}.b{fill:#efeeec;}.c{fill:#80766e;}.d,.f,.i,.k{fill:none;stroke-miterlimit:10;}.d,.i,.k{stroke:#80766e;}.d{stroke-width:2.64px;}.e{fill:#f6bfb4;}.f{stroke:#e74425;stroke-width:8.1px;}.g{fill:#c3e5d9;}.h{fill:#cee5b2;}.i{stroke-width:2.14px;}.j{fill:#fbba72;}.k{stroke-width:1.96px;}</style></defs><polygon class="a" points="288.68 11.47 163.01 309.46 430.23 302.25 288.68 11.47"/><polygon class="b" points="156.77 78.04 29.4 313.06 296.62 305.85 156.77 78.04"/><polygon class="c" points="418.81 70.97 291.44 305.99 558.66 298.79 418.81 70.97"/><polygon class="d" points="426.36 62.7 373.06 161.04 296.23 3.2 225.87 170.03 164.31 69.77 36.95 304.79 170.56 301.19 298.99 297.72 304.17 297.58 437.77 293.98 566.21 290.51 426.36 62.7"/><path class="e" d="M143.87,42.14a97,97,0,0,0-94.38,99.62c1.44,53.57,103.31,231.4,103.31,231.4s92.14-183.06,90.69-236.63A97,97,0,0,0,143.87,42.14ZM76.37,129.2s42.75-42.59,69.87-43.32S216,125.43,216,125.43s-40.39,42.53-67.5,43.26S76.37,129.2,76.37,129.2Z"/><path class="f" d="M137.06,47.46a97,97,0,0,0-94.38,99.62C44.12,200.65,146,378.48,146,378.48s92.14-183.06,90.69-236.63A97,97,0,0,0,137.06,47.46ZM69.57,134.52s42.74-42.59,69.86-43.32,69.73,39.55,69.73,39.55-40.39,42.52-67.5,43.26S69.57,134.52,69.57,134.52Z"/><circle class="g" cx="141.34" cy="130.84" r="31.89"/><circle class="a" cx="141.34" cy="130.84" r="16.37"/><circle class="b" cx="130.56" cy="118.38" r="2.96"/><circle class="b" cx="149.95" cy="144.74" r="1.48"/><path class="a" d="M80.36,378.38H32.54c-2.64,0-4.51-2.35-2-3.79L34.91,372c4.23-2.47,6.89-5.62,7.58-9l.91-4.47a21.87,21.87,0,0,0-2.37-15l-2.75-5.14c0-2.91,4.31-5.27,9.63-5.27h21.6c5.32,0,9.63,2.36,9.63,5.27l-3.89,6.16a15.55,15.55,0,0,0-2.55,8.34v7.63c0,5.14,3.65,10.07,10.18,13.76l1.11.62C86.28,376.22,84.61,378.38,80.36,378.38Z"/><polygon class="h" points="118 341.96 85.45 285.58 104.9 285.58 72.64 229.7 94.51 229.7 68.03 183.85 82.16 183.85 59 143.73 35.84 183.85 49.97 183.85 23.5 229.7 45.37 229.7 13.1 285.58 32.55 285.58 0 341.96 118 341.96"/><path class="i" d="M92.54,373l-1.11-.62c-6.53-3.69-10.19-8.62-10.19-13.76V351a15.56,15.56,0,0,1,2.56-8.34l1-1.59h41.75L94,284.69h19.46L81.18,228.81h21.87L76.58,183H90.71L67.55,142.84,44.39,183H58.51L32,228.81H53.91L21.65,284.69H41.1L8.55,341.07H49.27l.31.57a21.87,21.87,0,0,1,2.37,15L51,361.11c-.69,3.36-3.34,6.51-7.57,9L39,372.67c-2.46,1.44-.59,3.79,2,3.79H88.9C93.16,376.46,94.83,374.31,92.54,373Z"/><path class="j" d="M415.63,240.12h28.3a58.35,58.35,0,0,1,58.35,58.35v0a0,0,0,0,1,0,0h-145a0,0,0,0,1,0,0v0a58.35,58.35,0,0,1,58.35-58.35Z"/><path class="j" d="M358.75,329.15a58.36,58.36,0,0,0,56.88,45.31h28.3a58.37,58.37,0,0,0,57.12-46.37"/><path class="h" d="M356.51,316.6H501.2l4.93,3.83a4.46,4.46,0,0,1-3.42,7.92l-4.94-.77-.44,1.34A9.85,9.85,0,0,1,481,332.77l-2.45-2.45L477.11,332a14.52,14.52,0,0,1-21.33.86l-2.58-2.58L449.12,334a14.39,14.39,0,0,1-20.64-1.33l-2-2.38L419,333.8a13.1,13.1,0,0,1-17.9-7.55l0,0-23,7.65a9.26,9.26,0,0,1-12-7h0l-7.31,2.25a5.47,5.47,0,0,1-5.62-8.94Z"/><rect class="e" x="357.28" y="300.77" width="145" height="13.05" rx="6.53"/><path class="k" d="M423.09,244h28.3a58.35,58.35,0,0,1,58.35,58.35v0a0,0,0,0,1,0,0h-145a0,0,0,0,1,0,0v0A58.35,58.35,0,0,1,423.09,244Z"/><path class="k" d="M366.2,333.07a58.39,58.39,0,0,0,56.89,45.31h28.29A58.37,58.37,0,0,0,508.51,332"/><path class="k" d="M509.72,321.35h0c0-.44,0-.87,0-1.32h-145v.49"/><path class="k" d="M364,320.52h144.7l4.92,3.83a4.45,4.45,0,0,1-3.42,7.92l-4.93-.77-.45,1.34a9.84,9.84,0,0,1-16.3,3.85L486,334.24,484.57,336a14.52,14.52,0,0,1-21.33.86l-2.58-2.58L456.58,338a14.4,14.4,0,0,1-20.65-1.33l-2-2.38-7.45,3.48a13.1,13.1,0,0,1-17.9-7.55l0-.05-23,7.66a9.27,9.27,0,0,1-12-7h0l-7.3,2.25a5.47,5.47,0,0,1-5.62-8.95Z"/><rect class="k" x="364.74" y="304.68" width="145" height="13.05" rx="6.53"/></svg>